<svg width="53" height="50" viewBox="0 0 53 50" fill="none" xmlns="http://www.w3.org/2000/svg">
<g clip-path="url(#clip0_2083_1293)">
<path d="M52.3795 29.2835C52.0203 30.2571 51.8009 31.3151 51.2727 32.1849C50.0538 34.1939 48.2124 35.3395 45.8234 35.4888C45.0417 35.5375 44.2535 35.5326 43.4701 35.5229C42.1846 35.5066 41.6613 34.9728 41.6596 33.6811C41.6596 28.4883 41.7523 23.2956 41.632 18.1029C41.4548 10.4614 35.5846 4.43783 28.4337 3.46257C20.7774 2.41915 13.6346 7.34252 11.7218 14.3819C11.3609 15.6777 11.1622 17.0131 11.1302 18.3576C11.0619 23.44 11.1025 28.524 11.0993 33.6113C11.0993 34.8787 10.745 35.3768 9.52122 35.5294C5.54273 36.0259 1.86165 34.4324 0.668747 30.3496C0.564733 29.9959 0.475343 29.6372 0.379456 29.2818V23.4416C0.433899 23.3498 0.477015 23.2517 0.507853 23.1495C1.02142 20.0956 2.82539 18.1889 5.76863 17.3483C6.47885 17.1454 7.24269 17.1325 7.97241 17.0335C8.04879 16.3957 8.07154 15.7969 8.19993 15.2209C9.80238 8.05165 14.0507 3.2224 21.0699 0.940841C22.4611 0.488099 23.9563 0.355038 25.4043 0.0759277H27.3546L29.1764 0.376129C35.2644 1.36762 39.7403 4.62769 42.7128 9.99081C43.9252 12.1815 44.559 14.5637 44.7881 17.0205C44.8513 17.0562 44.9184 17.0846 44.988 17.1049C45.1506 17.1179 45.3131 17.1179 45.4756 17.1276C48.4367 17.3207 50.5755 18.7325 51.7863 21.4522C52.0642 22.0802 52.1861 22.7763 52.3811 23.44L52.3795 29.2835Z" fill="#0AA8E3"/>
<path d="M23.9384 49.081C22.7309 48.6623 21.7168 48.0619 21.3007 46.7231C20.6961 44.7759 22.1426 42.6501 24.1871 42.5965C25.5636 42.5608 26.9499 42.5787 28.3216 42.5965C29.9647 42.6063 31.3461 43.7617 31.572 45.2951C31.6823 46.0632 31.5171 46.8454 31.1054 47.5035C30.6938 48.1616 30.0623 48.6531 29.3227 48.8911C29.1504 48.9512 28.983 49.0226 28.814 49.0891L23.9384 49.081Z" fill="#0AA8E3"/>
<path d="M19.2969 44.8618V46.5933C12.6335 47.3592 7.75792 42.0496 7.36462 37.5173H9.05483C9.6009 39.8703 10.8084 41.7884 12.7749 43.1969C14.7414 44.6054 16.9306 45.0533 19.2969 44.8618Z" fill="#0AA8E3"/>
</g>
<defs>
<clipPath id="clip0_2083_1293">
<rect width="52" height="49" fill="white" transform="translate(0.376221 0.0776367)"/>
</clipPath>
</defs>
</svg>
