<svg width="31" height="32" viewBox="0 0 31 32" fill="none" xmlns="http://www.w3.org/2000/svg">
<g clip-path="url(#clip0_114_1466)">
<path d="M9.28004 31.6465C8.44355 31.2332 8.34228 30.6469 8.99871 29.9721C10.2097 28.7283 11.4216 27.4858 12.6344 26.2445C13.0367 25.8331 13.4184 25.7755 13.7991 26.0465C14.2099 26.3349 14.3055 26.9203 13.9417 27.2961C12.6222 28.6774 11.2822 30.0375 9.94397 31.3995C9.83988 31.5052 9.68703 31.5619 9.55761 31.6417L9.28004 31.6465Z" fill="white"/>
<path d="M0.0908813 21.9394C0.209977 21.7558 0.302813 21.5462 0.450979 21.3924C1.69008 20.1108 2.93543 18.8331 4.18703 17.5591C4.74969 16.9872 5.53179 17.1602 5.65932 17.9004C5.67437 18.0376 5.66201 18.1766 5.62299 18.3088C5.58398 18.441 5.51912 18.5636 5.43238 18.6693C4.15202 20.0259 2.85541 21.3617 1.54254 22.6766C1.06803 23.1514 0.541943 22.9986 0.0936917 22.3238L0.0908813 21.9394Z" fill="white"/>
<path d="M19.8721 27.0307C19.3666 26.9605 19.0581 26.6693 18.8574 26.2069C17.7946 23.7591 16.7262 21.3137 15.6521 18.871C15.3333 18.1443 15.1532 17.2696 14.6375 16.74C14.1217 16.2104 13.2702 16.0239 12.5603 15.6971C10.1772 14.5981 7.79211 13.503 5.40519 12.4117C4.93631 12.1983 4.5959 11.8753 4.60622 11.3428C4.61653 10.8103 4.98601 10.5133 5.46052 10.323C13.1464 7.22981 20.8305 4.13344 28.5126 1.03386C28.9862 0.84162 29.426 0.81759 29.8049 1.21937C30.1659 1.60386 30.1443 2.03929 29.9643 2.50739C26.9384 10.3829 23.9154 18.259 20.8952 26.1358C20.6729 26.7077 20.2866 27.0422 19.8721 27.0307ZM7.37449 11.4024C7.50953 11.4803 7.57331 11.5235 7.6427 11.5552C9.98711 12.6347 12.3315 13.7026 14.6637 14.8012C15.0445 14.981 15.2555 14.9156 15.5377 14.6196C16.9913 13.0989 18.4701 11.6043 19.9368 10.1019C20.2537 9.77605 20.6138 9.70876 21.0002 9.91638C21.3687 10.1144 21.4766 10.4777 21.3687 10.8603C21.3078 11.0746 21.1409 11.2736 20.9815 11.437C19.5435 12.9262 18.0959 14.4078 16.6387 15.8816C16.3845 16.1373 16.3573 16.3344 16.5046 16.6602C17.3992 18.6615 18.2704 20.6742 19.15 22.6812C19.3619 23.1618 19.5795 23.6424 19.8327 24.2076C22.5381 17.1543 25.2061 10.2009 27.9218 3.12161L7.37449 11.4024Z" fill="white"/>
<path d="M11.42 19.1047C11.6882 19.3239 11.9986 19.4594 12.0943 19.6882C12.1899 19.917 12.1121 20.2649 12.0577 20.5437C12.0352 20.6638 11.8842 20.7619 11.7848 20.8637C9.87426 22.8227 7.96248 24.7803 6.04944 26.7367C5.90971 26.8799 5.74748 27.0357 5.56743 27.0962C5.19701 27.2212 4.83785 27.1366 4.62029 26.78C4.40273 26.4234 4.42148 26.0408 4.71407 25.7227C5.00665 25.4045 5.33018 25.0863 5.6387 24.7691C7.30698 23.0601 8.97057 21.3463 10.6473 19.6459C10.8405 19.4402 11.1077 19.3133 11.42 19.1047Z" fill="white"/>
</g>
<defs>
<clipPath id="clip0_114_1466">
<rect width="30" height="30.75" fill="white" transform="translate(0.0908813 0.896484)"/>
</clipPath>
</defs>
</svg>
