<svg width="28" height="27" viewBox="0 0 28 27" fill="none" xmlns="http://www.w3.org/2000/svg">
<path d="M14.0681 0.00253456C16.837 0.00253456 19.6062 0.00253456 22.3757 0.00253456C24.8485 0.00253456 26.7628 1.47141 27.3914 3.87089C27.491 4.26495 27.54 4.67008 27.5373 5.07653C27.5469 10.6854 27.5469 16.2943 27.5373 21.9032C27.5373 24.328 25.9706 26.3073 23.6024 26.8751C23.2188 26.9597 22.8267 26.9994 22.434 26.9933C16.8387 27 11.2438 27 5.64912 26.9933C2.76376 26.9933 0.549971 24.7794 0.546596 21.899C0.539847 16.2901 0.539847 10.6812 0.546596 5.07231C0.550815 2.21977 2.77051 0.010127 5.62971 0.00169004C8.44504 -0.00421585 11.257 0.00253456 14.0681 0.00253456ZM9.10564 8.30367C9.19001 7.60425 9.30812 7.04572 9.31824 6.4855C9.33015 5.95377 9.14546 5.43635 8.79954 5.03235C8.45362 4.62836 7.97081 4.3662 7.44361 4.29611C6.82182 4.21174 6.18316 4.22524 5.55378 4.24043C5.08723 4.25224 4.78182 4.58887 4.78014 5.074C4.77114 7.30811 4.77114 9.54222 4.78014 11.7763C4.78014 12.302 5.10917 12.5804 5.64996 12.5854C6.28271 12.5905 6.91547 12.5922 7.54738 12.5854C8.5176 12.5719 9.39839 11.9341 9.64053 10.9993C9.90797 9.96744 9.82951 8.98791 9.10564 8.30283V8.30367ZM4.77507 18.5639C4.77507 19.6607 4.77001 20.7575 4.77507 21.8543C4.77929 22.4449 5.09483 22.7638 5.68455 22.7739C6.20425 22.7841 6.7248 22.7874 7.2445 22.7739C8.70405 22.736 9.74261 21.6712 9.74767 20.2125C9.75189 19.1022 9.75358 17.9918 9.74767 16.8815C9.74092 15.7586 9.05164 14.7723 7.94559 14.5352C7.24619 14.3825 6.49869 14.4374 5.77145 14.4239C5.04421 14.4104 4.77592 14.6905 4.77423 15.4042C4.77254 16.4546 4.77507 17.5067 4.77507 18.5639ZM14.9607 19.1933C14.9607 20.0935 14.9607 20.9929 14.9607 21.8931C14.9607 22.423 15.2602 22.7545 15.72 22.7638C16.1798 22.7731 16.5004 22.4415 16.5105 21.9201C16.5215 21.386 16.4979 20.8511 16.524 20.3171C16.5451 19.8598 16.8463 19.5805 17.2403 19.5932C17.6343 19.6058 17.9034 19.9028 17.9152 20.3584C17.9245 20.8646 17.9152 21.3709 17.9152 21.8771C17.9195 22.4111 18.2029 22.7393 18.6686 22.7604C19.1209 22.7807 19.4862 22.455 19.4879 21.937C19.4954 20.096 19.4988 18.2542 19.4541 16.4141C19.4246 15.184 18.3877 14.3192 17.1357 14.3538C15.8837 14.3884 14.9742 15.335 14.959 16.6183C14.9531 17.4747 14.9607 18.3327 14.9607 19.1899V19.1933ZM19.0466 10.3083C19.0466 9.32623 18.6054 8.59137 17.7811 8.07756C17.4124 7.84807 17.0311 7.638 16.6556 7.41948C16.3283 7.22796 16.1081 6.93519 16.1334 6.5665C16.1494 6.33111 16.2768 6.02738 16.4574 5.90251C16.6194 5.79114 16.983 5.79367 17.145 5.90673C17.3281 6.03497 17.431 6.32858 17.4884 6.57494C17.5913 7.00522 17.9051 7.28702 18.3506 7.25833C18.7598 7.23218 19.055 6.9082 19.0669 6.47032C19.0913 5.56756 18.4873 4.67662 17.6208 4.33661C16.7771 4.00672 15.7411 4.24296 15.1438 4.89935C14.1137 6.02991 14.4073 7.86495 15.7639 8.72805C16.1537 8.9761 16.5941 9.15834 16.945 9.44857C17.1903 9.66483 17.3713 9.94448 17.4681 10.2568C17.5778 10.6078 17.2808 10.9757 16.9408 11.0432C16.5696 11.1166 16.2524 10.9183 16.141 10.5327C16.1056 10.4121 16.1005 10.2796 16.0727 10.1606C16.0277 9.9822 15.9228 9.82463 15.7755 9.71434C15.6282 9.60405 15.4475 9.54775 15.2636 9.55488C15.0799 9.56729 14.9067 9.64464 14.7748 9.77309C14.643 9.90154 14.5611 10.0727 14.5439 10.256C14.525 10.4657 14.5381 10.6771 14.5827 10.8829C14.8696 12.0176 15.9512 12.7888 17.021 12.6403C18.2738 12.4665 19.0466 11.5738 19.0466 10.3049V10.3083ZM12.3091 5.82405C12.6027 5.82405 12.8667 5.82911 13.1308 5.82405C13.6286 5.81223 13.9542 5.51947 13.9745 5.07316C13.993 4.58803 13.6994 4.25477 13.1823 4.23452C12.6212 4.21258 12.0576 4.2109 11.4949 4.23452C11.0292 4.25561 10.7356 4.55428 10.7356 5.02085C10.7255 7.28364 10.7255 9.54644 10.7356 11.8092C10.7356 12.3053 11.041 12.5736 11.5388 12.5812C12.072 12.5891 12.6063 12.5891 13.1418 12.5812C13.6758 12.5753 13.9778 12.2876 13.9761 11.8C13.9745 11.3123 13.6901 11.0406 13.1325 11.0271C12.8591 11.0204 12.5858 11.0271 12.3183 11.0271V9.24187C13.3029 9.12037 13.5374 8.96598 13.5509 8.44795C13.5653 7.90039 13.3712 7.76118 12.3107 7.56712L12.3091 5.82405ZM12.3091 15.967C12.6313 15.967 12.9232 15.9771 13.2143 15.967C13.7146 15.945 13.9896 15.6472 13.9736 15.1604C13.9618 14.7107 13.6699 14.4264 13.1873 14.4179C12.6389 14.4087 12.0905 14.4095 11.543 14.4179C11.0267 14.4247 10.7331 14.6981 10.7305 15.2262C10.7204 17.4603 10.7204 19.695 10.7305 21.9302C10.7305 22.4474 11.0267 22.7486 11.5329 22.7672C12.0804 22.7874 12.6297 22.7883 13.1772 22.7672C13.6935 22.7469 13.9913 22.4154 13.9745 21.9328C13.9593 21.4848 13.637 21.1895 13.1384 21.1776C12.8642 21.1717 12.59 21.1776 12.3099 21.1776V19.4076C12.8794 19.3637 13.5332 19.4034 13.5433 18.601C13.5543 17.7725 12.8937 17.7978 12.3074 17.7759L12.3091 15.967ZM22.4711 5.82405C22.6474 5.82405 22.7588 5.82405 22.8693 5.82405C23.3865 5.80633 23.7248 5.49585 23.7307 5.03688C23.7366 4.57791 23.4025 4.25646 22.887 4.2303C22.6491 4.21849 22.4095 4.2303 22.1707 4.2303C21.5675 4.2303 20.9626 4.21174 20.3611 4.24296C20.2582 4.24332 20.1565 4.26473 20.0623 4.30587C19.968 4.34701 19.8832 4.40701 19.813 4.48218C19.7428 4.55734 19.6888 4.64609 19.6542 4.74294C19.6196 4.83978 19.6052 4.94269 19.6119 5.04531C19.6186 5.47222 19.9367 5.79367 20.388 5.82573C20.5374 5.83586 20.6876 5.83923 20.8748 5.84767V6.33026C20.8748 8.13015 20.8748 9.92723 20.8748 11.7215C20.8748 12.2454 21.1777 12.5711 21.646 12.5812C22.1665 12.593 22.4643 12.2623 22.4677 11.6405C22.4736 10.4188 22.4677 9.19377 22.4677 7.97632L22.4711 5.82405ZM22.4711 21.1793V20.6841C22.4711 18.9551 22.4711 17.2269 22.4711 15.4996C22.4761 15.3585 22.4682 15.2173 22.4474 15.0777C22.3631 14.6331 22.0594 14.3969 21.6164 14.4188C21.5176 14.4211 21.4202 14.4428 21.3298 14.4828C21.2393 14.5228 21.1577 14.5801 21.0894 14.6517C21.0212 14.7232 20.9677 14.8075 20.932 14.8997C20.8964 14.9919 20.8792 15.0903 20.8816 15.1891C20.8737 17.4508 20.8737 19.7127 20.8816 21.9749C20.8816 22.3917 21.1237 22.6988 21.527 22.7343C22.0568 22.7825 22.5901 22.778 23.119 22.7208C23.5155 22.6794 23.7509 22.3141 23.7315 21.9344C23.7228 21.7432 23.6452 21.5615 23.5132 21.4229C23.3811 21.2843 23.2033 21.1981 23.0127 21.1802C22.8482 21.1633 22.682 21.1793 22.4711 21.1793Z" fill="#0AA8E3"/>
</svg>
