<svg width="23" height="19" viewBox="0 0 23 19" fill="none" xmlns="http://www.w3.org/2000/svg">
<path d="M13.8463 3.01936C14.4559 3.01936 15.0657 3.02476 15.6755 3.03017C17.1056 3.04284 18.5358 3.05552 19.9644 2.9985C21.3583 2.94288 22.8148 4.10462 22.3442 6.00469C21.9449 7.62563 21.5701 9.2526 21.1953 10.8796C21.0153 11.6608 20.8353 12.442 20.6527 13.2226C20.3711 14.4275 19.5313 15.0921 18.2854 15.0928H7.68515C6.39619 15.0928 5.54939 14.3934 5.26713 13.1461C5.04068 12.1475 4.81035 11.1499 4.58004 10.1523C4.11388 8.13322 3.64779 6.11447 3.2141 4.08793C3.07505 3.42885 2.80391 3.03952 2.17542 2.83234C1.86585 2.72915 1.57466 2.58116 1.28366 2.43327C1.18254 2.38188 1.08145 2.3305 0.979617 2.28102C0.492952 2.04464 0.310106 1.58578 0.511724 1.13179C0.707085 0.693101 1.20696 0.519988 1.69362 0.737596C2.30473 1.01569 2.91167 1.29378 3.51722 1.58509C4.1916 1.90629 4.58093 2.45343 4.7457 3.17231C5.43306 6.1785 6.1218 9.18423 6.81194 12.1895C6.83249 12.2796 6.85243 12.37 6.87237 12.4605C6.89965 12.5842 6.92694 12.7079 6.95585 12.8312C7.05805 13.265 7.20405 13.3825 7.65665 13.3825H14.5033H18.2576C18.7491 13.3825 18.8979 13.2775 19.0105 12.7992C19.4142 11.0792 19.8135 9.35781 20.2084 7.63502C20.3774 6.90363 20.5456 6.17502 20.7055 5.43877C20.8028 4.99174 20.5866 4.72824 20.1243 4.72338C19.8077 4.71967 19.4912 4.7209 19.1746 4.72214C19.0163 4.72276 18.858 4.72338 18.6998 4.72338H7.50648C6.8912 4.72338 6.51994 4.41817 6.50117 3.90856C6.4817 3.37671 6.82723 3.02353 7.38342 3.02283C9.53772 3.01866 11.692 3.0175 13.8463 3.01936Z" fill="black"/>
<path d="M13.8463 3.01936C14.4559 3.01936 15.0657 3.02476 15.6755 3.03017C17.1056 3.04284 18.5358 3.05552 19.9644 2.9985C21.3583 2.94288 22.8148 4.10462 22.3442 6.00469C21.9449 7.62563 21.5701 9.2526 21.1953 10.8796C21.0153 11.6608 20.8353 12.442 20.6527 13.2226C20.3711 14.4275 19.5313 15.0921 18.2854 15.0928H7.68515C6.39619 15.0928 5.54939 14.3934 5.26713 13.1461C5.04068 12.1475 4.81035 11.1499 4.58004 10.1523C4.11388 8.13322 3.64779 6.11447 3.2141 4.08793C3.07505 3.42885 2.80391 3.03952 2.17542 2.83234C1.86585 2.72915 1.57466 2.58116 1.28366 2.43327C1.18254 2.38188 1.08145 2.3305 0.979617 2.28102C0.492952 2.04464 0.310106 1.58578 0.511724 1.13179C0.707085 0.693101 1.20696 0.519988 1.69362 0.737596C2.30473 1.01569 2.91167 1.29378 3.51722 1.58509C4.1916 1.90629 4.58093 2.45343 4.7457 3.17231C5.43306 6.1785 6.1218 9.18423 6.81194 12.1895C6.83249 12.2796 6.85243 12.37 6.87237 12.4605C6.89965 12.5842 6.92694 12.7079 6.95585 12.8312C7.05805 13.265 7.20405 13.3825 7.65665 13.3825H14.5033H18.2576C18.7491 13.3825 18.8979 13.2775 19.0105 12.7992C19.4142 11.0792 19.8135 9.35781 20.2084 7.63502C20.3774 6.90363 20.5456 6.17502 20.7055 5.43877C20.8028 4.99174 20.5866 4.72824 20.1243 4.72338C19.8077 4.71967 19.4912 4.7209 19.1746 4.72214C19.0163 4.72276 18.858 4.72338 18.6998 4.72338H7.50648C6.8912 4.72338 6.51994 4.41817 6.50117 3.90856C6.4817 3.37671 6.82723 3.02353 7.38342 3.02283C9.53772 3.01866 11.692 3.0175 13.8463 3.01936Z" stroke="#F3F3F3"/>
<path d="M5.93109 17.6958H20.2311" stroke="black" stroke-width="1.5"/>
</svg>
