<svg width="21" height="19" viewBox="0 0 21 19" fill="none" xmlns="http://www.w3.org/2000/svg">
<path d="M0.43103 5.97847C0.495598 5.60183 0.532285 5.21735 0.630116 4.84951C1.13052 2.9604 2.22231 1.55213 4.11435 0.936285C6.10569 0.286201 7.88328 0.737689 9.33557 2.26972C9.75233 2.70995 10.084 3.22894 10.4606 3.72152C10.488 3.67554 10.535 3.59483 10.5824 3.51412C11.1694 2.52114 11.9247 1.69056 12.97 1.16619C14.2247 0.538603 15.5327 0.490177 16.8343 0.962699C18.7293 1.65143 19.8147 3.07584 20.2628 4.99968C20.6981 6.86922 20.2628 8.58175 19.2233 10.1627C18.3316 11.5181 17.184 12.6451 15.9773 13.7095C14.2897 15.1971 12.5757 16.6586 10.8725 18.132C10.5903 18.3765 10.2899 18.3942 10.0267 18.1652C8.07307 16.4644 6.10961 14.7749 4.1755 13.0531C3.22703 12.2088 2.36808 11.2721 1.66419 10.2077C1.00823 9.21373 0.558699 8.14689 0.459401 6.94993C0.453007 6.91188 0.443518 6.87442 0.43103 6.83791V5.97847ZM10.4151 16.958C10.4395 16.9443 10.463 16.9291 10.4856 16.9125C12.2578 15.3707 14.0437 13.8441 15.7958 12.2793C16.8167 11.368 17.75 10.3672 18.4524 9.17704C19.1651 7.96982 19.4434 6.67894 19.1318 5.29806C18.7865 3.7675 17.9579 2.61017 16.4376 2.0628C15.3854 1.68322 14.3425 1.74339 13.3491 2.29809C12.5131 2.76425 11.9305 3.47205 11.4903 4.2997C11.2892 4.67684 11.1415 5.08235 10.9659 5.47367C10.8637 5.70259 10.6856 5.82928 10.4323 5.82977C10.1789 5.83026 10.0003 5.70748 9.89419 5.47905C9.85897 5.40225 9.83304 5.32154 9.80222 5.24279C9.44759 4.32954 8.97066 3.49749 8.24036 2.82393C6.66675 1.37261 4.34474 1.58099 3.01376 2.93496C1.5463 4.42786 1.2758 6.22403 1.93077 8.1689C2.27025 9.18047 2.88707 10.0365 3.61444 10.7947C4.41812 11.6375 5.24919 12.4578 6.11597 13.2331C7.5262 14.4956 8.97507 15.7156 10.4151 16.958Z" fill="black"/>
</svg>
