<svg width="19" height="22" viewBox="0 0 19 22" fill="none" xmlns="http://www.w3.org/2000/svg">
<g clip-path="url(#clip0_1_4)">
<path d="M9.47024 20.2648C8.02295 20.2754 6.5822 20.1577 5.19375 19.7532C4.36918 19.5129 3.57893 19.1337 2.80339 18.7546C2.20519 18.4628 2.00742 17.9316 2.0777 17.255C2.25913 15.5037 2.91535 13.9796 4.13055 12.7006C4.53507 12.274 4.57103 11.7788 4.22616 11.4405C3.8625 11.0842 3.3926 11.1218 2.97337 11.559C1.40268 13.1934 0.588736 15.1547 0.440002 17.4102C0.368087 18.4775 0.80775 19.28 1.62497 19.9068C1.90528 20.1226 2.20357 20.314 2.51655 20.4789C4.08152 21.3002 5.78541 21.6328 7.51955 21.8093C9.36251 21.9993 11.2234 21.9167 13.0423 21.5641C14.5133 21.2773 15.9467 20.8671 17.1799 19.9559C18.0935 19.2792 18.5577 18.3933 18.4057 17.2419C18.324 16.6118 18.2422 15.9736 18.0788 15.3623C17.6757 13.886 16.8897 12.5424 15.8004 11.4674C15.5413 11.2067 15.2161 11.0842 14.917 11.2452C14.6857 11.3694 14.4332 11.6538 14.4013 11.8948C14.3694 12.1359 14.5345 12.4718 14.7176 12.6696C16.0104 14.0588 16.7124 15.6933 16.7941 17.59C16.8105 17.9619 16.7051 18.2781 16.4109 18.489C16.0022 18.7758 15.5871 19.0749 15.1319 19.271C13.3234 20.0417 11.4095 20.2386 9.47024 20.2648Z" fill="white"/>
<path d="M9.47024 20.2647C11.4103 20.2386 13.3242 20.0416 15.1262 19.2628C15.5814 19.0667 15.9965 18.7676 16.4051 18.4808C16.6993 18.2732 16.8048 17.9569 16.7884 17.5818C16.7067 15.6818 16.0047 14.0539 14.7119 12.6614C14.5288 12.4636 14.3621 12.1294 14.3956 11.8866C14.4291 11.6439 14.68 11.3612 14.9113 11.237C15.2104 11.0735 15.5356 11.1986 15.7947 11.4592C16.884 12.5342 17.6699 13.8778 18.0731 15.3541C18.2365 15.9662 18.3182 16.6044 18.4 17.2337C18.5552 18.3852 18.0911 19.271 17.1741 19.9477C15.941 20.8589 14.51 21.2691 13.0366 21.556C11.2177 21.9085 9.35679 21.9911 7.51383 21.8011C5.77888 21.6246 4.0758 21.292 2.51083 20.4707C2.19785 20.3058 1.89956 20.1144 1.61925 19.8986C0.802032 19.2718 0.363187 18.4693 0.433467 17.402C0.587921 15.1531 1.40187 13.1917 2.97256 11.5573C3.39179 11.1201 3.86169 11.0825 4.22535 11.4388C4.57021 11.7771 4.53426 12.2724 4.12974 12.699C2.91454 13.9779 2.25831 15.502 2.07689 17.2533C2.00661 17.93 2.20437 18.4612 2.80258 18.7529C3.57811 19.1321 4.36836 19.5113 5.19293 19.7515C6.58138 20.1577 8.02213 20.2754 9.47024 20.2647Z" fill="black"/>
<path d="M9.42368 0.645752C10.9435 0.647701 12.4004 1.25311 13.4741 2.32888C14.5477 3.40466 15.1502 4.86275 15.1491 6.38261C15.1491 9.50928 12.57 12.0892 9.43512 12.0884C7.91557 12.0845 6.45952 11.4784 5.38603 10.4029C4.31254 9.32746 3.70915 7.87029 3.70807 6.35074C3.7097 3.22162 6.28312 0.647386 9.42368 0.645752ZM13.5147 6.35973C13.5133 5.55064 13.2719 4.76016 12.8208 4.08846C12.3698 3.41677 11.7295 2.8941 10.9811 2.58669C10.2326 2.27929 9.40981 2.20099 8.61685 2.36172C7.82389 2.52246 7.0965 2.91498 6.52686 3.48955C5.95722 4.06412 5.57099 4.79487 5.4171 5.58919C5.26321 6.38351 5.3486 7.20563 5.66244 7.95136C5.97629 8.6971 6.50446 9.33287 7.18002 9.77811C7.85558 10.2233 8.64812 10.458 9.45718 10.4523C10.537 10.4448 11.57 10.0101 12.3303 9.24317C13.0906 8.47629 13.5164 7.43962 13.5147 6.35973Z" fill="black"/>
</g>
<defs>
<clipPath id="clip0_1_4">
<rect width="18" height="21.2591" fill="white" transform="translate(0.43103 0.645752)"/>
</clipPath>
</defs>
</svg>
