<svg width="14" height="10" viewBox="0 0 14 10" fill="none" xmlns="http://www.w3.org/2000/svg">
<path d="M13.0228 1.43737C12.9592 1.75919 12.7579 1.99133 12.533 2.21585C10.1847 4.5589 7.83856 6.90471 5.49466 9.25327C5.17665 9.57128 4.80967 9.70834 4.37687 9.55633C4.21456 9.49698 4.06686 9.4035 3.94375 9.28221C2.74424 8.09372 1.5495 6.90068 0.359529 5.70308C-0.121929 5.21971 -0.0812243 4.52646 0.441892 4.11687C0.850209 3.79887 1.42548 3.85611 1.83221 4.26188C2.75187 5.17943 3.67037 6.09814 4.58771 7.01802C4.62301 7.05364 4.64622 7.10102 4.69615 7.17353C4.72958 7.12206 4.76611 7.07268 4.80554 7.02565C6.93829 4.89142 9.07146 2.75762 11.2051 0.624235C11.5142 0.314817 11.8729 0.184754 12.3015 0.318951C12.6755 0.436295 12.8991 0.700556 12.997 1.07548C13.0043 1.10347 13.0142 1.13082 13.0228 1.15848V1.43737Z" fill="black"/>
</svg>
