<svg width="21" height="21" viewBox="0 0 21 21" fill="none" xmlns="http://www.w3.org/2000/svg">
<path d="M9.04312 0.375488C9.4666 0.441959 9.89765 0.482699 10.3147 0.580261C12.9074 1.19994 14.8434 2.67087 15.9961 5.05524C17.3908 7.94136 17.1023 10.7374 15.3479 13.4091C15.2161 13.6096 15.0562 13.7929 14.8963 14.0009C14.9449 14.0535 14.9924 14.1081 15.0411 14.1564L19.7361 19.0002C20.1586 19.4365 20.2385 19.9436 19.9576 20.4036C19.8765 20.5349 19.7679 20.6474 19.6391 20.7333C19.5103 20.8192 19.3644 20.8766 19.2112 20.9015C19.058 20.9265 18.9013 20.9184 18.7516 20.8777C18.6018 20.8371 18.4627 20.765 18.3436 20.6662C18.2677 20.601 18.1956 20.5316 18.1275 20.4582C16.5625 18.8451 14.9979 17.2305 13.4335 15.6144C13.3973 15.5738 13.3648 15.53 13.3363 15.4837C12.8016 15.7624 12.3251 16.0562 11.8141 16.2706C9.52926 17.2355 7.23682 17.228 4.98651 16.1794C2.63249 15.0816 1.09735 13.2601 0.422151 10.7696C-0.173106 8.56319 0.126142 6.44363 1.30585 4.47416C2.55471 2.38998 4.39557 1.09273 6.77552 0.556675C7.1612 0.469834 7.55767 0.434454 7.94875 0.375488H9.04312ZM8.4954 2.54115C6.85964 2.54625 5.29246 3.19388 4.13652 4.34245C2.98057 5.49102 2.32989 7.04707 2.32676 8.6704C2.32904 10.2936 2.97936 11.8498 4.13532 12.9981C5.29128 14.1465 6.85869 14.7935 8.49432 14.7975C10.1332 14.7955 11.7044 14.1482 12.8628 12.9976C14.0212 11.847 14.6721 10.2872 14.6727 8.66075C14.6678 7.03735 14.0151 5.48199 12.8574 4.33507C11.6997 3.18816 10.1312 2.54313 8.4954 2.54115Z" fill="#3D3D3D"/>
</svg>
