<svg width="14" height="10" viewBox="0 0 14 10" fill="none" xmlns="http://www.w3.org/2000/svg">
<g clip-path="url(#clip0_3132_12)">
<path d="M0 1.06758L0.112856 0.719513L4.34222 4.91235L0.109569 9.1052C0.0810811 9.02046 0.0409058 8.89994 0 8.77978V1.06758Z" fill="black"/>
<path d="M0.738885 0.0785142C0.9215 0.0525829 1.10411 0.00546821 1.28454 0.00546821C2.34626 -0.00147116 3.40799 0.00218127 4.46935 0.00218127C7.20784 0.00218127 9.94621 0.00218127 12.6845 0.00218127C12.8853 0.00218127 13.0807 0.0229993 13.2889 0.128186C13.0775 0.334906 12.8777 0.526652 12.6819 0.72278C10.9152 2.49415 9.14892 4.26576 7.38315 6.03761C7.13553 6.28596 6.86525 6.2867 6.61945 6.04016L0.819601 0.219493C0.791113 0.191005 0.764086 0.161056 0.736328 0.131838L0.738885 0.0785142Z" fill="black"/>
<path d="M0.734375 9.71476L4.95497 5.53616C4.96849 5.54895 5.00465 5.58109 5.03898 5.61542C5.37681 5.95435 5.71319 6.29402 6.05212 6.63185C6.60654 7.18481 7.39471 7.18335 7.95132 6.63003L9.04701 5.54128L13.2946 9.74654C13.1288 9.78306 12.99 9.81629 12.8494 9.84186C12.7906 9.84863 12.7313 9.8501 12.6723 9.84624C8.89142 9.84624 5.11044 9.84527 1.32933 9.84332C1.13394 9.84332 0.938173 9.7973 0.74241 9.77283L0.734375 9.71476Z" fill="black"/>
<path d="M13.9047 0.723511C13.9347 0.877273 13.995 1.04382 13.9953 1.21036C14.0017 3.6837 14.0017 6.15728 13.9953 8.63111C13.9953 8.79875 13.9358 8.96639 13.9051 9.12819L9.66406 4.92183L13.9047 0.723511Z" fill="black"/>
</g>
<defs>
<clipPath id="clip0_3132_12">
<rect width="14" height="9.84806" fill="white"/>
</clipPath>
</defs>
</svg>
