<svg width="16" height="14" viewBox="0 0 16 14" fill="none" xmlns="http://www.w3.org/2000/svg">
<g clip-path="url(#clip0_3108_1958)">
<path d="M8.00069 2.1539C8.53054 1.30413 9.20685 0.682809 10.0966 0.314413C11.8756 -0.42288 13.9065 0.164455 15.0477 1.7885C16.2554 3.50701 16.2779 5.31251 15.3201 7.15099C14.6498 8.43813 13.6891 9.49633 12.6364 10.4751C11.3218 11.6967 9.88067 12.7514 8.3556 13.6946C8.10567 13.8486 7.88623 13.8491 7.6368 13.6946C5.67085 12.4775 3.82687 11.1014 2.25581 9.38886C1.40105 8.45712 0.672255 7.43941 0.256372 6.23025C-0.399943 4.32478 0.239877 2.1314 1.81743 0.881753C3.7139 -0.622324 6.44013 -0.149957 7.84124 1.92496C7.88573 1.99094 7.93321 2.05742 8.00069 2.1539Z" fill="black"/>
</g>
<defs>
<clipPath id="clip0_3108_1958">
<rect width="16" height="13.8101" fill="white"/>
</clipPath>
</defs>
</svg>
