<svg width="13" height="19" viewBox="0 0 13 19" fill="none" xmlns="http://www.w3.org/2000/svg">
<g clip-path="url(#clip0_3108_1941)">
<path d="M6.50376 -2.66494e-05C5.2186 -0.000613489 3.96212 0.388383 2.89315 1.11779C1.82418 1.8472 0.990715 2.88427 0.498111 4.09791C0.00550556 5.31155 -0.124123 6.64726 0.125613 7.93621C0.375348 9.22517 0.993235 10.4095 1.90117 11.3394C2.8091 12.2694 3.96631 12.9033 5.22652 13.1609C6.48673 13.4186 7.79336 13.2884 8.98124 12.7869C10.1691 12.2855 11.1849 11.4351 11.9002 10.3435C12.6155 9.25184 12.9982 7.96787 13 6.65387C13.0024 5.78037 12.8362 4.91496 12.5107 4.10732C12.1852 3.29968 11.707 2.56569 11.1034 1.94747C10.4999 1.32926 9.78286 0.838985 8.99353 0.504783C8.2042 0.170581 7.35809 -0.000969836 6.50376 -2.66494e-05ZM8.37212 8.72414C8.38142 9.4741 8.17318 9.62457 7.58743 9.38549C7.31869 9.27546 7.05286 9.15651 6.79401 9.02389C6.70129 8.97387 6.5979 8.94808 6.49307 8.94881C6.38823 8.94953 6.28519 8.97676 6.19314 9.02805C5.9023 9.17138 5.60215 9.31114 5.29677 9.42593C4.84538 9.59543 4.62202 9.43604 4.63132 8.94717C4.6383 8.5701 4.67844 8.19304 4.71218 7.81717C4.72311 7.72168 4.71375 7.62489 4.68474 7.53344C4.65573 7.44198 4.60774 7.35801 4.54407 7.28726C4.30733 7.00714 4.07 6.72524 3.86059 6.42371C3.59244 6.03713 3.68085 5.77426 4.12177 5.63211C4.45973 5.52387 4.81397 5.46737 5.1496 5.35318C5.30208 5.299 5.43478 5.19859 5.53002 5.06533C5.73535 4.76142 5.89008 4.42242 6.08902 4.11376C6.36706 3.68376 6.62765 3.68257 6.90337 4.10721C7.08109 4.37803 7.24251 4.65966 7.38675 4.95055C7.44061 5.07159 7.52361 5.17669 7.62797 5.25605C7.73234 5.3354 7.85468 5.38642 7.98355 5.40433C8.28311 5.45894 8.57869 5.53425 8.86829 5.62974C9.32025 5.77782 9.40693 6.0401 9.12947 6.43501C8.92239 6.7294 8.69029 7.00595 8.45762 7.28072C8.39116 7.35396 8.34133 7.44129 8.31167 7.53649C8.28201 7.63168 8.27325 7.73239 8.28603 7.83144C8.325 8.16271 8.35118 8.49517 8.37212 8.72414Z" fill="black"/>
<path d="M1.93246 13.2709C1.76436 13.8995 1.58346 14.53 1.42757 15.1675C1.25306 15.8931 1.08554 16.6216 0.950586 17.3561C0.865079 17.8206 0.922084 18.272 1.28098 18.6354C1.5852 18.9435 1.94992 19.0833 2.35302 18.95C2.86124 18.7793 3.3589 18.5773 3.84329 18.3452C4.45406 18.055 5.04795 17.7278 5.6465 17.4103C6.21771 17.1069 6.77845 17.1087 7.35315 17.4103C8.18496 17.8464 9.02219 18.2708 9.86486 18.6836C10.1035 18.7902 10.3502 18.8771 10.6024 18.9435C11.4168 19.1897 12.1148 18.4534 12.0659 17.779C12.0304 17.2479 11.9525 16.7206 11.8333 16.2024C11.6157 15.2662 11.3534 14.3408 11.1091 13.4107C11.0963 13.3619 11.0771 13.3149 11.0625 13.2727C8.01802 15.2139 4.98513 15.2133 1.93246 13.2709Z" fill="black"/>
<path d="M8.37226 8.72418C8.35132 8.4952 8.32514 8.16275 8.28908 7.83207C8.2763 7.73302 8.28506 7.63231 8.31472 7.53712C8.34438 7.44192 8.39421 7.35459 8.46067 7.28135C8.69335 7.00658 8.92602 6.73003 9.13251 6.43564C9.40998 6.04073 9.32331 5.77845 8.87134 5.63036C8.58175 5.53488 8.28615 5.45957 7.9866 5.40496C7.85772 5.38705 7.73539 5.33603 7.63102 5.25668C7.52666 5.17732 7.44366 5.07222 7.3898 4.95118C7.24556 4.66029 7.08414 4.37866 6.90642 4.10784C6.62779 3.6832 6.3672 3.68439 6.09206 4.11438C5.89313 4.42305 5.7384 4.76205 5.53307 5.06596C5.43783 5.19922 5.30512 5.29963 5.15265 5.35381C4.81702 5.468 4.46277 5.5245 4.12482 5.63274C3.6839 5.77488 3.59549 6.03776 3.86364 6.42434C4.07305 6.72587 4.31037 7.00777 4.54712 7.28789C4.61079 7.35864 4.65877 7.44261 4.68779 7.53407C4.7168 7.62552 4.72616 7.72231 4.71522 7.8178C4.68149 8.19367 4.64135 8.57074 4.63437 8.9478C4.62506 9.43667 4.84843 9.59606 5.29981 9.42656C5.6052 9.31177 5.90243 9.17201 6.19618 9.02868C6.28824 8.97739 6.39128 8.95016 6.49611 8.94944C6.60095 8.94871 6.70433 8.9745 6.79706 9.02452C7.05591 9.15714 7.32058 9.27609 7.59048 9.38612C8.17332 9.62461 8.38156 9.47473 8.37226 8.72418Z" fill="white"/>
</g>
<defs>
<clipPath id="clip0_3108_1941">
<rect width="13" height="19" fill="white" transform="matrix(-1 0 0 1 13 0)"/>
</clipPath>
</defs>
</svg>
