<svg width="16" height="16" viewBox="0 0 16 16" fill="none" xmlns="http://www.w3.org/2000/svg">
<path d="M4.3052e-05 7.98587C0.00644625 3.5778 3.60291 -0.00852239 8.00831 1.52119e-05C12.4313 0.00908641 16.023 3.60182 16 8.03016C15.9771 12.4772 12.3865 16.0779 7.85944 16.0053C5.75833 15.9699 3.75567 15.1085 2.28481 13.6077C0.813938 12.1069 -0.00684874 10.0873 4.3052e-05 7.98587ZM2.27425 11.8812C3.86864 10.3262 5.76613 9.48529 8.00618 9.48529C10.2462 9.48529 12.1426 10.3273 13.737 11.8812C15.5433 9.32681 15.4115 5.37123 12.6533 2.84891C10.044 0.462646 5.89259 0.487726 3.29769 2.90654C0.59394 5.42673 0.480817 9.36416 2.27425 11.8822V11.8812Z" fill="black"/>
<path d="M11.2063 5.35785C11.201 7.10006 9.75545 8.53864 8.01058 8.5365C7.58836 8.53588 7.17041 8.45198 6.78066 8.28961C6.39092 8.12724 6.03702 7.8896 5.73924 7.59028C5.44145 7.29096 5.20563 6.93584 5.04527 6.54526C4.88491 6.15468 4.80316 5.73631 4.80471 5.3141C4.81378 3.55321 6.25983 2.12904 8.02712 2.13491C9.78053 2.14078 11.2111 3.5911 11.2063 5.35785Z" fill="black"/>
</svg>
