<svg width="13" height="16" viewBox="0 0 13 16" fill="none" xmlns="http://www.w3.org/2000/svg">
<path d="M6.60234 0C6.92904 0.0521744 7.25961 0.0897398 7.58243 0.159027C9.97131 0.673675 11.8665 2.63251 12.2788 4.9741C12.4984 6.22252 12.2754 7.40667 11.8054 8.56369C11.2682 9.89477 10.5007 11.1027 9.63687 12.253C8.67372 13.5316 7.60658 14.7334 6.44567 15.8468C6.23347 16.0509 6.13318 16.0513 5.92141 15.8468C4.29525 14.2691 2.82576 12.5699 1.63606 10.6544C0.974918 9.59007 0.430857 8.47646 0.144191 7.25391C-0.435596 4.76206 0.772617 2.09574 3.05776 0.826025C3.85207 0.37565 4.7399 0.102594 5.65669 0.0267133C5.69322 0.0210941 5.72921 0.0125785 5.7643 0.00125213L6.60234 0ZM9.01834 5.99797C9.01232 4.47531 7.73997 3.24316 6.17751 3.25025C5.80369 3.25107 5.43372 3.32356 5.0889 3.46356C4.74408 3.60355 4.43122 3.80829 4.16831 4.066C3.9054 4.3237 3.69764 4.62927 3.55699 4.96514C3.41633 5.301 3.34555 5.66052 3.34873 6.02301C3.35347 7.53148 4.64002 8.75611 6.21238 8.74776C7.75589 8.73942 9.02437 7.49641 9.01834 5.99797Z" fill="black"/>
</svg>
