<svg width="16" height="16" viewBox="0 0 16 16" fill="none" xmlns="http://www.w3.org/2000/svg">
<g clip-path="url(#clip0_3108_1945)">
<path d="M0.078505 4.43674L7.32569 7.59141V15.8374C7.18357 15.787 7.04811 15.7481 6.92208 15.6922C5.14887 14.9178 3.369 14.1532 1.60689 13.3607C0.562612 12.8919 0.0168801 12.0622 0.00799736 10.9301C-0.00643706 9.0132 0.00189049 7.09083 0.00799736 5.17118C0.00799736 4.93568 0.0518569 4.70072 0.078505 4.43674Z" fill="black"/>
<path d="M8.6709 15.8544V7.5706L11.4467 6.39965C11.4467 6.93145 11.4434 7.44025 11.4467 7.9507C11.4446 8.09545 11.492 8.23668 11.5814 8.3515C11.6708 8.46632 11.7969 8.54799 11.9392 8.58327C12.3739 8.69281 12.7719 8.38501 12.7747 7.91783C12.7821 7.28252 12.7821 6.6472 12.7747 6.01189C12.7747 5.86127 12.8147 5.78569 12.9601 5.72325C13.8751 5.33221 14.7844 4.92911 15.696 4.53039C15.7515 4.50575 15.8109 4.48494 15.9059 4.44769C15.9353 4.66074 15.9853 4.85846 15.9858 5.05617C15.9914 7.05085 16.013 9.04662 15.9792 11.0407C15.9614 12.1087 15.4062 12.9029 14.4175 13.346C12.7481 14.0979 11.0659 14.8214 9.38818 15.5553C9.1589 15.6572 8.92295 15.7498 8.6709 15.8544Z" fill="black"/>
<path d="M4.89648 1.29137C5.43333 1.05532 5.93965 0.820365 6.45651 0.609506C6.82296 0.450973 7.20099 0.319888 7.5874 0.217362C8.06373 0.102348 8.5434 0.17519 8.99086 0.369619C10.8285 1.16815 12.6629 1.97306 14.4943 2.78437C14.7485 2.89719 14.97 3.08176 15.246 3.25866C15.146 3.31343 15.0977 3.3452 15.0461 3.3682C14.1223 3.77294 13.1985 4.17823 12.2703 4.57311C12.1863 4.61007 12.0912 4.61418 12.0043 4.58461C9.67002 3.51115 7.33831 2.43403 5.00919 1.35326C4.98309 1.34176 4.95977 1.32697 4.89648 1.29137Z" fill="black"/>
<path d="M10.4967 5.36399C9.85046 5.64057 9.24255 5.92208 8.61798 6.16142C8.14775 6.34161 7.65921 6.30382 7.19786 6.10282C5.08821 5.18344 2.98116 4.26004 0.876692 3.33262C0.852265 3.32167 0.830613 3.30524 0.745117 3.25321C1.05601 3.06425 1.32194 2.86983 1.61285 2.73126C2.10362 2.49357 2.60882 2.28435 3.11181 2.07404C3.20365 2.03748 3.30602 2.03612 3.39883 2.0702C5.70242 3.12906 8.0036 4.19267 10.3024 5.26102C10.3607 5.28731 10.4128 5.31853 10.4967 5.36399Z" fill="black"/>
</g>
<defs>
<clipPath id="clip0_3108_1945">
<rect width="16" height="15.6923" fill="white" transform="translate(0 0.162598)"/>
</clipPath>
</defs>
</svg>
