<svg width="15" height="17" viewBox="0 0 15 17" fill="none" xmlns="http://www.w3.org/2000/svg">
<g clip-path="url(#clip0_3108_1935)">
<path d="M7.54561 0C7.70173 0.0669728 7.79354 0.187613 7.86096 0.341961C8.0122 0.691461 8.17941 1.03431 8.33199 1.38292C8.34584 1.42649 8.37322 1.46451 8.41015 1.49146C8.44707 1.51842 8.49162 1.53291 8.53734 1.53283C8.93918 1.5692 9.33924 1.62154 9.74019 1.66589C9.9176 1.68585 10.0622 1.76214 10.1216 1.93866C10.1811 2.11519 10.1216 2.27175 9.98147 2.39949C9.6914 2.66117 9.40754 2.93527 9.11127 3.1934C9.00393 3.28699 8.98397 3.37525 9.01413 3.50831C9.10018 3.89063 9.16893 4.27694 9.25142 4.66148C9.29223 4.84156 9.24787 4.99058 9.09929 5.10058C8.95071 5.21057 8.80124 5.19904 8.64734 5.11166C8.28719 4.90764 7.92439 4.70761 7.56646 4.49871C7.53102 4.47411 7.48882 4.46112 7.44569 4.46152C7.40255 4.46191 7.3606 4.47568 7.32562 4.50093C6.97701 4.70318 6.62263 4.89567 6.27313 5.09659C6.11035 5.19017 5.94891 5.21634 5.79234 5.10058C5.63578 4.98482 5.60163 4.83135 5.64332 4.64374C5.72803 4.26098 5.79767 3.87511 5.88061 3.49057C5.90633 3.37259 5.89258 3.29009 5.7919 3.20316C5.49119 2.94237 5.20511 2.66516 4.90928 2.3986C4.76735 2.27087 4.70925 2.11874 4.77001 1.93778C4.83077 1.75682 4.97315 1.68585 5.15145 1.66589C5.55772 1.62154 5.96355 1.57098 6.37026 1.53283C6.41066 1.53237 6.4499 1.5193 6.48251 1.49544C6.51511 1.47159 6.53945 1.43814 6.55211 1.39978C6.70867 1.04495 6.87677 0.698114 7.03023 0.343735C7.09765 0.188943 7.18902 0.0687466 7.34558 0.00177382L7.54561 0Z" fill="black"/>
<path d="M8.61329 10.1218H9.03464C10.1355 10.1218 11.2363 10.1173 12.3372 10.1244C13.0246 10.1284 13.5316 10.6864 13.4872 11.3707C13.4726 11.5952 13.4043 11.7535 13.1768 12.0888C13.5174 12.7404 13.4748 13.1533 13.0069 13.6802C13.3134 14.2568 13.2286 14.7793 12.7363 15.2423C12.8587 15.4823 12.9275 15.7404 12.8783 16.0167C12.774 16.6039 12.3074 16.9925 11.6958 16.9925C10.2966 16.996 8.89715 16.9968 7.49737 16.9947H5.80487C5.7716 16.9947 5.73834 16.9947 5.70507 16.9947C5.33029 16.9809 5.2753 16.9246 5.2753 16.556C5.2753 14.2497 5.27441 11.9433 5.27263 9.63699C5.26935 9.51655 5.31291 9.39953 5.39416 9.31056C6.21029 8.36823 6.72914 7.20536 6.8853 5.96857C6.95982 5.40263 7.40645 5.14937 7.92272 5.38932C8.62438 5.71532 8.96678 6.29811 9.07057 7.03969C9.19609 7.93163 9.00138 8.78808 8.7601 9.63744C8.71575 9.7909 8.66829 9.94259 8.61329 10.1218Z" fill="black"/>
<path d="M4.47654 13.4216V16.3418C4.47654 16.7525 4.24946 16.9854 3.82855 16.9964C3.58017 17.0031 3.33091 16.9964 3.08209 16.9964C2.42981 16.9964 1.77738 16.9964 1.1248 16.9964C0.611636 16.9964 0.285199 16.6731 0.284755 16.1564C0.282686 14.3258 0.282686 12.4954 0.284755 10.6651C0.284755 10.1484 0.611636 9.82681 1.12746 9.82637C2.00653 9.82637 2.88605 9.82105 3.76512 9.8308C3.91885 9.83586 4.06987 9.87271 4.20865 9.93903C4.39316 10.0246 4.48674 10.171 4.48408 10.4012C4.46945 11.4089 4.47654 12.4152 4.47654 13.4216ZM1.83666 11.687C1.88634 11.687 1.93601 11.687 1.98569 11.687C2.21233 11.6768 2.37377 11.518 2.3791 11.3011C2.38319 11.1978 2.3462 11.097 2.27621 11.0209C2.20623 10.9448 2.10895 10.8994 2.00565 10.8948C1.89025 10.8848 1.7742 10.8848 1.65881 10.8948C1.60774 10.8986 1.55791 10.9124 1.51218 10.9354C1.46644 10.9585 1.42571 10.9903 1.39229 11.0291C1.35888 11.0679 1.33345 11.1129 1.31746 11.1616C1.30147 11.2102 1.29523 11.2616 1.2991 11.3126C1.30886 11.5215 1.46765 11.675 1.68764 11.6856C1.73731 11.6892 1.78699 11.687 1.83666 11.687Z" fill="black"/>
<path d="M11.0943 5.6847C11.151 5.40306 11.2131 5.07751 11.285 4.75329C11.3089 4.64418 11.2921 4.57011 11.2038 4.49338C10.9781 4.29823 10.763 4.09066 10.5421 3.88974C10.409 3.76777 10.3425 3.62362 10.3993 3.44621C10.456 3.2688 10.5926 3.18408 10.7709 3.1628C11.0783 3.12598 11.3857 3.08695 11.6935 3.06034C11.7928 3.05191 11.8363 3.00978 11.8736 2.92728C11.996 2.64963 12.1277 2.37598 12.2519 2.09877C12.3286 1.92668 12.447 1.81935 12.644 1.82201C12.8338 1.82511 12.9469 1.93333 13.0205 2.09788C13.1429 2.36977 13.2711 2.63899 13.3895 2.91264C13.4312 3.00712 13.4818 3.05324 13.5944 3.06034C13.8921 3.08296 14.1879 3.1251 14.4842 3.1588C14.6696 3.17965 14.8164 3.25904 14.8722 3.44532C14.925 3.62273 14.866 3.76866 14.7294 3.89107C14.5077 4.09066 14.293 4.29956 14.0668 4.49382C13.9781 4.57055 13.9626 4.64374 13.9865 4.75151C14.0513 5.04247 14.1036 5.33653 14.167 5.62793C14.207 5.80844 14.167 5.95924 14.0167 6.06879C13.8663 6.17834 13.7186 6.16903 13.5652 6.0821C13.2959 5.92953 13.0241 5.78139 12.7579 5.62438C12.7227 5.59926 12.6804 5.58576 12.6371 5.58576C12.5938 5.58576 12.5515 5.59926 12.5162 5.62438C12.2404 5.7876 11.9627 5.9486 11.6788 6.09674C11.395 6.24487 11.0841 6.04839 11.0943 5.6847Z" fill="black"/>
<path d="M2.30891 1.81848C2.4331 1.81848 2.55418 1.91029 2.62781 2.06952C2.76086 2.35471 2.89392 2.6399 3.01944 2.92819C3.03168 2.96683 3.056 3.00052 3.08881 3.02431C3.12162 3.0481 3.1612 3.06074 3.20173 3.06036C3.50466 3.08653 3.80626 3.12645 4.10786 3.16193C4.29192 3.18322 4.43518 3.26172 4.49329 3.45067C4.54873 3.63207 4.47954 3.77355 4.34692 3.89419C4.12516 4.09556 3.91049 4.30224 3.68606 4.49872C3.6487 4.52589 3.62076 4.56404 3.60613 4.60785C3.5915 4.65166 3.59091 4.69895 3.60445 4.74311C3.66921 5.0283 3.72376 5.31615 3.78187 5.60267C3.81868 5.78008 3.80227 5.94817 3.64393 6.06615C3.48559 6.18413 3.31527 6.16284 3.14762 6.06615C2.89481 5.91934 2.63535 5.78229 2.38475 5.63149C2.34785 5.60386 2.3031 5.58871 2.25701 5.58823C2.21091 5.58775 2.16586 5.60197 2.12839 5.62883C1.87292 5.78185 1.60946 5.92289 1.35089 6.07236C1.18856 6.16595 1.02534 6.18635 0.870102 6.06881C0.714867 5.95128 0.685151 5.79604 0.72773 5.60976C0.794555 5.31408 0.852805 5.01603 0.90248 4.71561C0.906047 4.68066 0.902332 4.64536 0.891568 4.61192C0.880804 4.57849 0.863226 4.54764 0.839943 4.52134C0.627049 4.312 0.406172 4.11064 0.181747 3.91371C0.0353823 3.78509 -0.0400177 3.63473 0.0194151 3.44401C0.0828396 3.24265 0.247389 3.1779 0.443428 3.15749C0.734826 3.12866 1.02622 3.09806 1.31585 3.0546C1.35102 3.04763 1.38433 3.03332 1.4136 3.01261C1.44287 2.9919 1.46745 2.96525 1.48572 2.9344C1.62543 2.65276 1.75184 2.36269 1.8849 2.07795C1.9634 1.90098 2.0836 1.82114 2.30891 1.81848Z" fill="black"/>
</g>
<defs>
<clipPath id="clip0_3108_1935">
<rect width="14.8915" height="17" fill="white"/>
</clipPath>
</defs>
</svg>
