<svg width="14" height="14" viewBox="0 0 14 14" fill="none" xmlns="http://www.w3.org/2000/svg">
<g clip-path="url(#clip0_3108_1929)">
<path d="M6.55846 14C6.29791 13.9644 6.0347 13.9422 5.77683 13.8915C3.26832 13.3953 1.47474 11.9779 0.530383 9.60899C-0.391746 7.305 -0.0867405 5.09082 1.30401 3.03493C1.67507 2.49878 2.12472 2.02155 2.63785 1.61928C2.71934 1.54866 2.81402 1.49491 2.91642 1.46113C3.01882 1.42735 3.1269 1.41422 3.23441 1.42249C3.34192 1.43076 3.44672 1.46027 3.54275 1.50931C3.63877 1.55835 3.72412 1.62595 3.79385 1.7082C3.86348 1.78834 3.91648 1.88154 3.94974 1.98237C3.983 2.0832 3.99587 2.18964 3.9876 2.29548C3.97932 2.40133 3.95007 2.50448 3.90154 2.59891C3.85301 2.69334 3.78617 2.77717 3.70493 2.84552C3.32644 3.15538 2.98454 3.50742 2.68587 3.89481C1.83844 5.07215 1.50676 6.37931 1.71128 7.81897C1.86472 8.94309 2.38374 9.9855 3.18828 10.7854C3.98576 11.6061 5.03088 12.142 6.16275 12.3105C7.11732 12.4625 8.09535 12.3464 8.98783 11.9752C9.82538 11.6347 10.5606 11.0833 11.122 10.3746C11.636 9.74335 11.9928 8.99913 12.1633 8.20312C12.3793 7.23523 12.32 6.22617 11.992 5.29027C11.664 4.35437 11.0804 3.52903 10.3074 2.90777C9.94108 2.6081 9.85038 2.18749 10.062 1.82736C10.1216 1.72303 10.2036 1.63327 10.3021 1.56455C10.4007 1.49584 10.5133 1.44991 10.6318 1.43008C10.7502 1.41024 10.8717 1.41701 10.9872 1.44989C11.1027 1.48277 11.2095 1.54093 11.2998 1.62017C12.7039 2.7646 13.57 4.22471 13.8341 6.02184C14.0827 7.66167 13.7354 9.33628 12.8553 10.742C11.9752 12.1478 10.6204 13.1917 9.03673 13.6843C8.53736 13.8435 8.02049 13.9415 7.49748 13.976C7.45758 13.9814 7.41807 13.9894 7.37921 14H6.55846Z" fill="black"/>
<path d="M5.88321 3.80323C5.88321 2.92941 5.88321 2.05501 5.88321 1.18C5.88321 0.789634 6.00503 0.454395 6.32782 0.21786C6.47641 0.101863 6.65396 0.0288376 6.84116 0.0067309C7.02836 -0.0153758 7.21804 0.0142825 7.38956 0.0924793C7.56697 0.161481 7.72162 0.278591 7.83613 0.430649C7.95065 0.582706 8.02049 0.763686 8.03781 0.953252C8.0509 1.07135 8.05683 1.19013 8.05559 1.30894C8.05559 3.00737 8.05559 4.70579 8.05559 6.40422C8.0702 6.70258 7.97213 6.99554 7.78082 7.22497C7.64114 7.38225 7.45888 7.49568 7.2561 7.55154C7.05331 7.60741 6.83867 7.60331 6.63816 7.53976C6.44049 7.47606 6.2657 7.35606 6.13523 7.19447C6.00476 7.03289 5.92428 6.83674 5.90366 6.63008C5.89388 6.52071 5.88765 6.41222 5.88765 6.30285C5.8835 5.46993 5.88202 4.63673 5.88321 3.80323Z" fill="black"/>
</g>
<defs>
<clipPath id="clip0_3108_1929">
<rect width="13.9111" height="14" fill="white"/>
</clipPath>
</defs>
</svg>
