<svg width="50" height="67" viewBox="0 0 50 67" fill="none" xmlns="http://www.w3.org/2000/svg">
<g clip-path="url(#clip0_3175_295)">
<path d="M36.9208 -1.71824e-05C37.6058 0.346222 37.8609 0.903672 37.8404 1.68271C37.7993 3.19231 37.8318 4.70364 37.8267 6.21325C37.8267 7.29524 37.3677 7.77132 36.3215 7.77132C28.787 7.77132 21.2525 7.77132 13.7179 7.77132C12.7145 7.77132 12.2299 7.28486 12.2196 6.25653C12.2059 4.68114 12.2316 3.10575 12.2093 1.53036C12.1991 0.825768 12.5347 0.361811 13.0775 -0.0017395L36.9208 -1.71824e-05Z" fill="white"/>
<path d="M41.671 3.819C43.0135 3.89517 44.308 3.83458 45.5478 4.06829C48.0273 4.53918 49.8801 6.86591 49.9897 9.41942C49.9897 9.59254 49.9983 9.76566 49.9983 9.93878C49.9823 26.6737 49.9663 43.4086 49.9504 60.1434C49.9504 62.7939 48.8476 64.7761 46.4194 65.8564C45.7161 66.1626 44.9591 66.3228 44.1933 66.3273C31.3721 66.355 18.552 66.3596 5.73308 66.3411C4.97668 66.3453 4.22703 66.1972 3.52786 65.9054C2.82869 65.6136 2.19401 65.1839 1.66082 64.6415C1.12763 64.099 0.706622 63.4547 0.42236 62.746C0.138097 62.0374 -0.00372496 61.2786 0.00515323 60.5139C0.00515323 43.6475 0.0211301 26.7804 0.0530946 9.91281C0.0616566 6.32577 2.5566 3.88652 6.10638 3.87787H8.37359C8.37359 4.70884 8.36332 5.49826 8.37359 6.28595C8.41126 8.81177 9.8137 10.7767 12.0912 11.4311C12.6048 11.5747 13.1354 11.6463 13.6683 11.644C21.253 11.6579 28.8378 11.6579 36.4225 11.644C39.4363 11.644 41.6436 9.4125 41.6744 6.37771C41.6778 5.59694 41.671 4.79886 41.671 3.819ZM32.4823 53.139C34.7084 53.139 36.9242 53.139 39.1452 53.139C40.3952 53.139 41.2617 52.3461 41.2737 51.2139C41.2857 50.0817 40.4038 49.2542 39.1161 49.2542C34.697 49.2542 30.2767 49.2542 25.8553 49.2542C24.6104 49.2542 23.7354 50.0523 23.7234 51.1776C23.7114 52.3029 24.6019 53.1373 25.8845 53.139C28.0832 53.1425 30.2836 53.139 32.4823 53.139ZM32.4943 27.2178C34.6724 27.2178 36.8512 27.2178 39.0305 27.2178C40.3319 27.2178 41.2052 26.4371 41.212 25.2841C41.2189 24.1311 40.3404 23.333 39.0493 23.3313H25.9119C24.6173 23.3313 23.7303 24.1207 23.7234 25.2651C23.7166 26.4094 24.6053 27.2161 25.893 27.2178C28.0929 27.2201 30.2927 27.2201 32.4926 27.2178H32.4943ZM32.4515 36.2893C30.271 36.2893 28.0923 36.2893 25.9153 36.2893C24.6139 36.2893 23.732 37.0735 23.7234 38.2196C23.7149 39.3656 24.6053 40.1741 25.8913 40.1758H39.0287C40.3302 40.1758 41.2035 39.3968 41.212 38.2438C41.2206 37.0908 40.3421 36.291 39.0527 36.2893C36.8483 36.287 34.6479 36.287 32.4515 36.2893ZM12.9902 38.4533C12.6032 38.0309 12.295 37.6396 11.9336 37.309C11.5687 36.9684 11.0874 36.7841 10.5909 36.7947C10.0943 36.8054 9.62119 37.0102 9.27088 37.3661C8.92172 37.7105 8.71962 38.1792 8.70778 38.6722C8.69594 39.1652 8.8753 39.6434 9.20752 40.0045C10.0329 40.9047 10.8959 41.7772 11.7898 42.6012C12.1236 42.9334 12.5732 43.1196 13.0415 43.1196C13.5099 43.1196 13.9595 42.9334 14.2933 42.6012C16.3105 40.615 18.302 38.6016 20.2678 36.5611C20.7987 36.014 20.8963 35.2939 20.6017 34.5702C20.4767 34.2337 20.2574 33.9414 19.9706 33.7289C19.6838 33.5164 19.342 33.3931 18.987 33.374C18.3243 33.3134 17.7883 33.5904 17.3328 34.0664C15.9235 35.5051 14.5005 36.9298 12.9902 38.4533ZM13.0005 51.4182C12.6272 51.0097 12.3292 50.6409 11.9867 50.3172C11.6267 49.9554 11.1398 49.7524 10.6322 49.7524C10.1247 49.7524 9.6377 49.9554 9.27772 50.3172C9.09838 50.4958 8.95595 50.7087 8.85874 50.9435C8.76153 51.1783 8.71147 51.4303 8.71147 51.6848C8.71147 51.9394 8.76153 52.1913 8.85874 52.4261C8.95595 52.6609 9.09838 52.8738 9.27772 53.0525C10.0563 53.8811 10.8554 54.689 11.6751 55.4761C12.5124 56.2742 13.5981 56.269 14.4252 55.445C16.3545 53.521 18.2706 51.5833 20.1736 49.6316C20.4007 49.4149 20.5686 49.1427 20.6613 48.8413C20.754 48.5399 20.7683 48.2194 20.7028 47.9108C20.651 47.5663 20.5034 47.2437 20.2772 46.9808C20.0511 46.7178 19.7556 46.5252 19.4253 46.4255C19.08 46.3016 18.7063 46.2832 18.3506 46.3725C17.995 46.4617 17.6732 46.6547 17.4253 46.9275C15.9851 48.3956 14.5399 49.8601 13.0005 51.4182ZM12.9457 24.5189C12.6135 24.1311 12.3361 23.7451 11.9987 23.4213C11.1836 22.6423 10.05 22.6475 9.29486 23.3988C8.53969 24.1502 8.51571 25.3464 9.31026 26.1808C10.0649 26.9737 10.8343 27.7516 11.6186 28.5145C12.5056 29.3801 13.5844 29.3801 14.4611 28.5145C16.3584 26.6206 18.2421 24.7163 20.112 22.8016C20.9511 21.936 20.9545 20.7484 20.1617 19.971C19.3688 19.1937 18.2044 19.2561 17.3585 20.1026C16.0708 21.3941 14.7899 22.6994 13.509 23.9909C13.3669 24.1329 13.2094 24.2696 12.9457 24.5189Z" fill="white"/>
</g>
<defs>
<clipPath id="clip0_3175_295">
<rect width="50" height="66.3636" fill="white"/>
</clipPath>
</defs>
</svg>
