<svg width="64" height="71" viewBox="0 0 64 71" fill="none" xmlns="http://www.w3.org/2000/svg">
<g clip-path="url(#clip0_3175_301)">
<path d="M14.6092 16.9826C14.6092 18.5996 14.6092 20.118 14.6092 21.6364C14.6092 22.5629 15.038 23.1838 15.754 23.3598C16.8018 23.6286 17.6944 22.9226 17.7235 21.7466C17.7565 20.4429 17.7332 19.1393 17.7332 17.8375V17.0194H33.9782C33.9782 18.3134 33.9782 19.5861 33.9782 20.8588C33.9782 21.2205 33.9666 21.5842 33.9937 21.9439C34.0636 22.8375 34.7097 23.4333 35.5616 23.4139C35.7626 23.4117 35.9612 23.3698 36.1459 23.2906C36.3306 23.2115 36.4978 23.0967 36.6377 22.9528C36.7777 22.809 36.8877 22.6389 36.9615 22.4525C37.0352 22.2661 37.0712 22.0669 37.0673 21.8665C37.0964 20.4178 37.0673 18.9652 37.0789 17.5222V17.0194C37.3079 17.0039 37.5155 16.9768 37.7232 16.9768C40.4397 16.9768 43.1504 16.9768 45.8553 16.9768C47.2136 16.9768 47.9568 17.6054 48.081 18.9362C48.5603 24.0271 49.0124 29.1199 49.4722 34.2166C49.4728 34.3161 49.4676 34.4156 49.4567 34.5145C42.0308 34.0503 35.8255 36.5474 31.3431 42.5338C26.8608 48.5203 26.269 55.1219 28.8206 62.147H27.9901C20.0733 62.147 12.1585 62.0967 4.24361 62.176C1.73468 62.2012 -0.252281 60.3134 0.023255 57.7273C0.502532 53.2437 0.863438 48.7466 1.27674 44.2553C1.69005 39.764 2.10529 35.3211 2.51666 30.8549C2.87369 26.9633 3.21326 23.0716 3.58776 19.1818C3.75075 17.5087 4.39108 16.9749 6.09474 16.9729L14.6092 16.9826Z" fill="white"/>
<path d="M64 54.47C64.0041 56.6395 63.5788 58.7885 62.7486 60.794C61.9184 62.7995 60.6995 64.622 59.1617 66.1573C57.6239 67.6925 55.7974 68.9104 53.7868 69.741C51.7762 70.5717 49.621 70.9988 47.4446 70.9981C45.2619 71.0034 43.0996 70.5787 41.0821 69.7484C39.0645 68.918 37.2315 67.6984 35.6884 66.1596C34.1452 64.6208 32.9224 62.7932 32.0901 60.7818C31.2578 58.7704 30.8325 56.6148 30.8387 54.4391C30.8407 52.2696 31.2718 50.1218 32.1074 48.1186C32.943 46.1154 34.1666 44.296 35.7082 42.7647C37.2499 41.2333 39.0793 40.02 41.0918 39.1941C43.1043 38.3683 45.2604 37.946 47.4368 37.9516C49.6136 37.9481 51.7696 38.3729 53.7813 39.2019C55.793 40.0309 57.6206 41.2476 59.1595 42.7823C60.6983 44.3169 61.9181 46.1394 62.7487 48.1451C63.5794 50.1507 64.0046 52.3001 64 54.47ZM45.4343 56.3385C44.2352 55.2437 43.0612 54.1683 41.8853 53.0986C40.9637 52.2611 39.9023 52.2379 39.196 53.0329C38.4897 53.8278 38.6352 54.8259 39.5297 55.646C41.0225 57.0206 42.5199 58.3907 44.0217 59.7563C45.0792 60.7234 45.8767 60.7041 46.9323 59.7079C48.3009 58.412 49.6657 57.1122 51.0265 55.8085C52.5284 54.3752 54.0439 52.9516 55.5263 51.4951C56.2811 50.7505 56.2831 49.7369 55.6059 49.0329C55.2898 48.7105 54.8606 48.5228 54.4086 48.5095C53.9566 48.4962 53.517 48.6581 53.1823 48.9613C52.9048 49.1934 52.6545 49.4565 52.3926 49.7079L45.4343 56.3385Z" fill="white"/>
<path d="M36.9684 16.6905H34.0229C34.0093 16.4255 33.9879 16.1722 33.9841 15.9168C33.9647 14.1335 34.0287 12.3424 33.9142 10.5648C33.6426 6.35205 29.9752 3.0387 25.7646 3.1064C21.4511 3.17603 17.8963 6.6093 17.7663 10.8898C17.71 12.7892 17.7566 14.6925 17.7566 16.6557H14.6674C14.6674 14.5281 14.5821 12.4004 14.7024 10.296C14.7889 9.16646 15.0507 8.05719 15.4785 7.00775C17.2947 2.39073 22.2233 -0.524159 27.0666 0.0735203C32.2688 0.713752 36.4154 4.66926 36.9354 9.7447C37.1605 12.0155 36.9684 14.3211 36.9684 16.6905Z" fill="white"/>
</g>
<defs>
<clipPath id="clip0_3175_301">
<rect width="64" height="71" fill="white"/>
</clipPath>
</defs>
</svg>
