<svg width="68" height="55" viewBox="0 0 68 55" fill="none" xmlns="http://www.w3.org/2000/svg">
<g clip-path="url(#clip0_3175_289)">
<path d="M26.2602 52.0303L15.3453 47.8137L1.0956 42.3119C0.139378 41.9473 -0.00561523 41.7522 -0.00561523 40.7514C-0.00561523 31.2718 -0.00561523 21.7867 -0.00561523 12.2961C-0.00561523 12.0993 0.0182426 11.9024 0.0384316 11.6326C1.3085 12.1193 2.51617 12.5805 3.722 13.0454C5.23617 13.6288 6.73749 14.2395 8.26451 14.7845C8.861 14.9997 9.10694 15.2749 9.09042 15.9458C9.03719 18.0368 9.0684 20.1387 9.07207 22.2242C9.07207 23.0355 9.17852 23.1084 9.95855 22.8714C10.8983 22.587 11.849 22.3245 12.7703 21.9945C13.3209 21.7922 13.688 21.9052 14.112 22.2826C15.2003 23.256 16.3254 24.1894 17.4523 25.1192C17.6358 25.2632 17.8855 25.3014 18.1039 25.3981C18.1791 25.1775 18.3186 24.9569 18.3204 24.7345C18.337 22.7565 18.3204 20.7804 18.3204 18.7004L20.4605 19.5244C22.2499 20.2134 24.0376 20.908 25.8307 21.5862C26.1409 21.7047 26.3024 21.8341 26.3006 22.2078C26.2871 32.0788 26.2822 41.9503 26.2859 51.8225C26.2829 51.8923 26.2743 51.9618 26.2602 52.0303Z" fill="white"/>
<path d="M54.778 11.6526V26.5757C49.4555 26.7726 45.1461 28.9074 42.1324 33.2735C39.1188 37.6396 38.7205 42.4122 40.4402 47.4437L28.5104 52.054V51.2884C28.5104 41.6872 28.5061 32.0861 28.4976 22.4849C28.4976 21.9508 28.637 21.7065 29.1546 21.5078C37.4896 18.3103 45.8191 15.0981 54.143 11.8714C54.3265 11.8094 54.5174 11.7456 54.778 11.6526Z" fill="white"/>
<path d="M41.6369 41.8543C41.6387 40.1285 41.9849 38.4201 42.6555 36.8279C43.3261 35.2357 44.3077 33.7914 45.5437 32.5783C46.7796 31.3653 48.2454 30.4076 49.8562 29.7606C51.4671 29.1136 53.1911 28.7901 54.9285 28.8089C58.4129 28.8316 61.7459 30.2263 64.1962 32.6871C66.6464 35.1478 68.0137 38.4736 67.9981 41.9345C67.9559 49.1828 62.0314 55.0383 54.7744 55.0036C51.2789 54.9834 47.9339 53.5883 45.4716 51.1239C43.0094 48.6594 41.6305 45.3263 41.6369 41.8543ZM52.0195 43.6773C51.8176 43.4385 51.6671 43.2726 51.5276 43.0994C50.8137 42.2098 50.1089 41.3147 49.3894 40.4306C48.8902 39.8198 48.2497 39.5191 47.4513 39.6904C46.0344 40.004 45.4728 41.559 46.3831 42.7421C47.5908 44.3135 48.8535 45.8412 50.0887 47.3963C51.1569 48.7362 52.2636 48.7981 53.4951 47.5786C56.3925 44.7019 59.2899 41.8227 62.1874 38.9412C62.3709 38.7734 62.5397 38.5904 62.6921 38.3943C62.9121 38.1134 63.0434 37.7739 63.0692 37.4189C63.095 37.0639 63.0142 36.7093 62.8371 36.3999C62.47 35.7181 61.8625 35.2897 61.1027 35.4301C60.5302 35.5402 60.0004 35.808 59.5738 36.203C57.052 38.6221 54.5761 41.1251 52.0195 43.6627V43.6773Z" fill="white"/>
<path d="M36.3842 3.38896C34.3653 4.1765 32.3849 4.9458 30.4082 5.70964C24.1081 8.14031 17.8067 10.5765 11.5041 13.0181C11.219 13.1443 10.9104 13.2095 10.5983 13.2095C10.2862 13.2095 9.9776 13.1443 9.69255 13.0181C7.04964 11.9516 4.38103 10.9526 1.54907 9.86062C1.88678 9.71661 2.07949 9.6291 2.28322 9.55436C10.4359 6.41636 18.591 3.27715 26.7485 0.136719C27.1223 -0.0150453 27.5365 -0.0381465 27.925 0.0710941C30.6633 1.08651 33.3815 2.15479 36.1052 3.21031C36.2032 3.26174 36.2965 3.32151 36.3842 3.38896Z" fill="white"/>
<path d="M53.1025 9.93535C51.4311 10.5843 49.7591 11.2339 48.0864 11.8841C41.4216 14.4582 34.7587 17.0347 28.0975 19.6137C27.8821 19.7079 27.6493 19.7566 27.4139 19.7566C27.1785 19.7566 26.9456 19.7079 26.7302 19.6137C24.7113 18.8061 22.6924 18.0423 20.6735 17.2602C20.4661 17.18 20.2661 17.0888 19.9155 16.9412C20.9892 16.5201 21.9344 16.1482 22.8704 15.7854C30.3 12.9123 37.732 10.0466 45.1664 7.1881C45.5416 7.05962 45.9493 7.05962 46.3245 7.1881C48.5912 8.02668 50.8395 8.9163 53.0933 9.78952L53.1025 9.93535Z" fill="white"/>
</g>
<defs>
<clipPath id="clip0_3175_289">
<rect width="68" height="55" fill="white"/>
</clipPath>
</defs>
</svg>
