<svg width="80" height="48" viewBox="0 0 80 48" fill="none" xmlns="http://www.w3.org/2000/svg">
<g clip-path="url(#clip0_3175_298)">
<path d="M80 38.3951C79.374 39.7457 78.3049 40.2287 76.8509 40.1256C75.7897 40.0505 74.7191 40.1115 73.6407 40.1115C72.2758 44.6135 69.3708 47.3225 64.5829 47.2365C59.9859 47.1537 57.1936 44.4759 55.9039 40.1334H32.2273C30.8953 44.5572 28.0389 47.26 23.3245 47.2381C18.654 47.2162 15.8116 44.5338 14.4937 40.1115C13.0287 40.1115 11.5715 40.1115 10.1112 40.1115C8.44423 40.1115 7.50512 39.1642 7.50042 37.4947C7.50042 35.2859 7.50042 33.0756 7.50042 30.7495H4.69404C3.99127 30.7495 3.28537 30.7495 2.58416 30.7495C1.06749 30.7386 0.00942733 29.7804 0.00316657 28.4173C-0.00309419 27.0542 1.05811 26.0725 2.56695 26.0725C9.44126 26.0725 16.3156 26.0725 23.1899 26.0725C24.248 26.0725 25.0681 25.6942 25.5471 24.725C26.3109 23.1618 25.1886 21.4157 23.3902 21.3938C21.199 21.3657 19.0155 21.386 16.829 21.386C12.063 21.386 7.29852 21.3938 2.53408 21.386C0.62611 21.386 -0.552483 19.6446 0.25046 18.033C0.720017 17.0951 1.50261 16.7043 2.54033 16.7043C7.12321 16.7105 11.7061 16.7105 16.289 16.7043C17.8808 16.7043 18.9639 15.5725 18.8199 14.1047C18.6978 12.8541 17.9355 12.1991 16.5159 12.1882C13.8864 12.1694 11.2553 12.1882 8.62579 12.1882C7.35016 12.1882 6.07454 12.1991 4.79734 12.1882C3.36833 12.1726 2.32277 11.144 2.34625 9.80746C2.36973 8.50376 3.40432 7.53145 4.80517 7.51269C5.66289 7.50175 6.52687 7.51269 7.4519 7.51269C7.46912 7.26415 7.4973 7.04374 7.4973 6.81864C7.4973 5.36174 7.48634 3.90641 7.4973 2.44952C7.51451 1.02701 8.4865 0.0593977 9.90299 0.0218811C10.0846 0.0218811 10.2661 0.0218811 10.4492 0.0218811H52.3337V0.895705C52.3337 5.16009 52.3337 9.42552 52.3337 13.692C52.3337 15.5084 53.2431 16.4088 55.0791 16.4088C60.8343 16.4088 66.5895 16.34 72.3431 16.4385C75.1605 16.4885 77.5802 17.5843 79.0734 20.1245C79.4976 20.8436 79.6839 21.7018 79.9797 22.4959L80 38.3951ZM19.0672 38.3013C19.0672 38.8675 19.179 39.4281 19.3964 39.9511C19.6137 40.474 19.9322 40.949 20.3337 41.3488C20.7351 41.7485 21.2116 42.0653 21.7359 42.2808C22.2601 42.4963 22.8218 42.6064 23.3887 42.6048C24.5199 42.5962 25.6022 42.1428 26.4011 41.3429C27.2 40.5429 27.6512 39.4608 27.6569 38.331C27.6587 37.2011 27.215 36.1159 26.4218 35.3103C25.6286 34.5046 24.5496 34.0432 23.4184 34.026C22.8514 34.0206 22.2889 34.1271 21.7632 34.3391C21.2375 34.5512 20.7588 34.8648 20.3546 35.262C19.9504 35.6591 19.6286 36.132 19.4077 36.6536C19.1868 37.1751 19.0711 37.7351 19.0672 38.3013ZM60.4712 38.3154C60.4734 38.8815 60.5874 39.4417 60.8065 39.9638C61.0257 40.486 61.3458 40.9598 61.7484 41.3584C62.1511 41.7569 62.6284 42.0722 63.1532 42.2864C63.678 42.5005 64.2399 42.6092 64.8067 42.6064C65.938 42.5932 67.0185 42.1358 67.8147 41.3331C68.6108 40.5303 69.0585 39.4468 69.0609 38.317C69.0589 37.1871 68.6116 36.1034 67.8158 35.3004C67.0199 34.4974 65.9395 34.0395 64.8083 34.026C64.2408 34.0217 63.678 34.1293 63.1522 34.3427C62.6265 34.5562 62.1481 34.8712 61.7446 35.2697C61.341 35.6683 61.0202 36.1425 60.8006 36.6651C60.581 37.1878 60.4669 37.7486 60.4649 38.3154H60.4712Z" fill="white"/>
<path d="M57.0605 11.6614V0.531494C63.4903 1.75391 66.9212 6.35907 69.8685 11.6614H57.0605Z" fill="white"/>
</g>
<defs>
<clipPath id="clip0_3175_298">
<rect width="80" height="47.2381" fill="white"/>
</clipPath>
</defs>
</svg>
