<svg width="10" height="10" viewBox="0 0 10 10" fill="none" xmlns="http://www.w3.org/2000/svg">
<path d="M1.96614 8.44915C2.03462 7.97146 2.1145 7.36348 2.21721 6.87492C2.25539 6.73564 2.24859 6.58865 2.19771 6.4531C2.14682 6.31754 2.0542 6.19971 1.93191 6.11495C1.49717 5.79007 1.09594 5.42654 0.733655 5.02928C0.633518 4.91391 0.559524 4.78011 0.51632 4.63625C0.473116 4.49239 0.461633 4.34159 0.482591 4.19331C0.562474 3.94361 0.916238 3.73733 1.19012 3.6179C1.50653 3.50073 1.84345 3.44178 2.18297 3.44419C2.54554 3.47543 2.90751 3.37874 3.20001 3.17255C3.49251 2.96635 3.6951 2.66503 3.76923 2.32595C3.88175 2.02128 4.02307 1.72694 4.19147 1.44655C4.25818 1.3053 4.36636 1.1854 4.50302 1.10128C4.63969 1.01716 4.799 0.972412 4.96177 0.972412C5.12455 0.972412 5.28385 1.01716 5.42051 1.10128C5.55717 1.1854 5.66537 1.3053 5.73208 1.44655C6.01738 1.91339 6.27984 2.40195 6.51949 2.8905C6.56925 3.02202 6.66082 3.13554 6.78147 3.21531C6.90213 3.29507 7.04589 3.33712 7.19281 3.33563C7.69493 3.33563 8.18563 3.44419 8.67634 3.49848C8.87604 3.48944 9.07353 3.54149 9.23987 3.64699C9.40621 3.75249 9.53268 3.9059 9.60072 4.08474C9.65419 4.25514 9.65345 4.43679 9.59862 4.6068C9.54379 4.77681 9.43732 4.92758 9.2926 5.04014C8.82471 5.49612 8.1514 5.90868 7.96881 6.46237C7.78622 7.01606 8.16282 7.66747 8.27694 8.2863C8.35682 8.65543 8.27693 9.05713 7.94598 9.21998C7.62486 9.32846 7.27427 9.32846 6.95315 9.21998C6.43961 9.04627 5.97172 8.74228 5.4696 8.54686C5.25236 8.47038 5.01353 8.47038 4.7963 8.54686C4.24852 8.79657 3.73499 9.11141 3.19863 9.36112C2.66227 9.61082 1.94332 9.19827 1.96614 8.44915Z" fill="white"/>
</svg>
