<svg width="31" height="27" viewBox="0 0 31 27" fill="none" xmlns="http://www.w3.org/2000/svg">
<g clip-path="url(#clip0_1_7)">
<path d="M2.25262 8.31495V12.0536H2.79193C5.98039 12.0536 9.16854 12.0536 12.3564 12.0536C12.9994 12.0536 13.4228 12.42 13.4378 12.964C13.4527 13.5248 13.0162 13.9099 12.3545 13.9211C12.2461 13.9211 12.1367 13.9211 12.0283 13.9211H2.26571V25.1016H28.3738V24.6099C28.3738 22.6471 28.3691 20.6843 28.3738 18.7215C28.3738 17.9149 29.0542 17.4336 29.7085 17.7626C29.8733 17.8376 30.0121 17.96 30.1073 18.1141C30.2025 18.2682 30.2498 18.4471 30.2431 18.6281C30.2431 20.8086 30.2609 22.9883 30.2347 25.1707C30.2216 26.1989 29.4449 26.9401 28.4214 26.9999C28.2822 27.0083 28.141 27.0045 28.0018 27.0045H2.61527C1.07868 27.0045 0.372074 26.2951 0.372074 24.7473V8.67106C0.372074 7.15596 1.08336 6.44094 2.59191 6.44094H12.1592C12.315 6.434 12.4712 6.43837 12.6265 6.45403C12.8498 6.48118 13.0557 6.58862 13.2057 6.75631C13.3557 6.924 13.4396 7.14051 13.4417 7.36548C13.4439 7.59046 13.3642 7.80855 13.2175 7.97911C13.0708 8.14966 12.867 8.26105 12.6442 8.29252C12.4745 8.31172 12.3036 8.31734 12.133 8.30934H2.25262V8.31495Z" fill="#3D3D3D"/>
<path d="M30.3749 6.95957C30.2113 8.51579 30.1328 10.086 29.8664 11.6245C29.4608 13.9612 28.1392 15.7968 26.3306 17.2643C25.4053 18.012 24.3743 18.6354 23.3882 19.3103C23.0592 19.5355 22.6957 19.6187 22.3349 19.4093C20.3066 18.2307 18.4093 16.8988 17.0615 14.9136C16.0516 13.4286 15.4776 11.6906 15.4043 9.89629C15.3221 8.20361 15.3436 6.50532 15.3034 4.81077C15.2894 4.22006 15.5389 3.85554 16.081 3.62655C18.1373 2.75419 20.1873 1.87311 22.2311 0.983311C22.399 0.904582 22.5822 0.86377 22.7676 0.86377C22.9531 0.86377 23.1362 0.904582 23.3041 0.983311C25.351 1.87031 27.3989 2.75918 29.4542 3.62468C30.015 3.86302 30.2665 4.23969 30.2468 4.84722C30.2235 5.54729 30.2412 6.24922 30.2412 6.94929L30.3749 6.95957ZM28.4513 5.22389C26.5904 4.42475 24.8547 3.67609 23.1144 2.93583C22.9686 2.87414 22.7676 2.80217 22.6414 2.85451C20.817 3.62094 19.0009 4.407 17.1867 5.18651C17.1867 6.54364 17.1465 7.86713 17.197 9.18782C17.2531 10.658 17.5484 12.0853 18.2934 13.3817C19.3215 15.1697 20.9011 16.3558 22.6134 17.4007C22.7069 17.4577 22.9181 17.4185 23.0256 17.3493C23.6116 16.9708 24.2033 16.5941 24.7557 16.1698C26.61 14.7425 27.9335 12.9527 28.1812 10.5674C28.3625 8.79152 28.3681 6.99976 28.4513 5.22389Z" fill="#3D3D3D"/>
<path d="M6.91848 17.6605C7.50919 17.6605 8.10083 17.6521 8.69435 17.6605C9.28786 17.6689 9.70659 18.0577 9.70752 18.5905C9.70846 19.1232 9.29721 19.5186 8.69715 19.5251C7.49984 19.5354 6.30253 19.5373 5.10523 19.5251C4.51452 19.5195 4.10046 19.1017 4.11541 18.5727C4.1285 18.0586 4.53134 17.6764 5.10242 17.6642C5.70528 17.6502 6.31562 17.6605 6.91848 17.6605Z" fill="#3D3D3D"/>
<path d="M21.9143 10.4638C22.6517 9.54405 23.3583 8.6636 24.064 7.78221C24.3173 7.46723 24.5594 7.14383 24.822 6.83726C25.2024 6.39423 25.7212 6.32693 26.1427 6.65033C26.5642 6.97372 26.6418 7.51863 26.2829 7.97381C25.0541 9.53097 23.8123 11.0822 22.5573 12.6275C22.1349 13.1453 21.475 13.1201 21.089 12.5733C20.4347 11.648 19.8131 10.704 19.2037 9.74688C19.1338 9.64793 19.0849 9.53566 19.0601 9.41703C19.0353 9.29841 19.0352 9.17595 19.0598 9.05728C19.0843 8.9386 19.133 8.82624 19.2028 8.72716C19.2726 8.62809 19.362 8.54441 19.4654 8.48134C19.8954 8.1944 20.4001 8.27571 20.7329 8.73183C21.1338 9.28141 21.4993 9.85156 21.9143 10.4638Z" fill="#3D3D3D"/>
</g>
<defs>
<clipPath id="clip0_1_7">
<rect width="30" height="26.1445" fill="white" transform="translate(0.374878 0.861816)"/>
</clipPath>
</defs>
</svg>
