<svg width="12" height="12" viewBox="0 0 12 12" fill="none" xmlns="http://www.w3.org/2000/svg">
<g clip-path="url(#clip0_2212_1397)">
<path d="M11.9996 4.88473V5.07881C11.9996 7.01062 11.9996 8.94242 11.9996 10.8742C11.9996 11.5554 11.6398 11.9349 10.9921 11.9349H1.01347C0.363207 11.9349 0.000366211 11.5574 0.000366211 10.8813C0.000366211 8.9495 0.000366211 7.01782 0.000366211 5.08627V4.88159H5.24448V8.00559L5.96753 7.21988L6.68684 8.00756L6.74387 7.96827V4.88473H11.9996ZM7.50407 8.78502H10.495V8.01698H7.50407V8.78502ZM8.25452 10.3564H10.495V9.58881H8.25414L8.25452 10.3564Z" fill="white"/>
<path d="M6.75553 4.06269L6.38293 0.937507H6.5773C7.58327 0.937507 8.58924 0.934757 9.59522 0.942221C9.63882 0.943892 9.68167 0.954614 9.72129 0.973768C9.7609 0.992921 9.79649 1.02012 9.82598 1.05379C10.5363 2.0324 11.2383 3.01808 11.9419 4.00022C11.9522 4.0197 11.9606 4.04023 11.967 4.06151L6.75553 4.06269Z" fill="white"/>
<path d="M5.61747 0.93753C5.49177 1.9896 5.3687 3.01967 5.2445 4.06075H0.0198975C0.149349 3.87767 0.264542 3.71189 0.381987 3.54807C0.969961 2.72621 1.56019 1.90592 2.14553 1.08171C2.17496 1.03333 2.21625 0.994108 2.26509 0.968126C2.31393 0.942145 2.36853 0.930358 2.4232 0.933995C3.42354 0.939888 4.42389 0.93753 5.42498 0.93753H5.61747Z" fill="white"/>
</g>
<defs>
<clipPath id="clip0_2212_1397">
<rect width="12" height="11" fill="white" transform="translate(0 0.934082)"/>
</clipPath>
</defs>
</svg>
