<svg width="34" height="34" viewBox="0 0 34 34" fill="none" xmlns="http://www.w3.org/2000/svg">
<g clip-path="url(#clip0_32_2)">
<path d="M20.1316 27.7831L24.5472 25.3558C26.7843 24.1257 29.0184 22.8872 31.2639 21.6705C31.5938 21.4918 31.7237 21.2893 31.7144 20.9092C31.6897 19.7906 31.702 18.672 31.7072 17.5533C31.7072 16.9625 31.9237 16.6816 32.3464 16.6847C32.7691 16.6878 32.9845 16.9698 32.9856 17.5585C32.9856 18.9013 32.9784 20.244 32.9918 21.5868C32.9969 21.9938 32.8516 22.2602 32.4907 22.4575C28.3256 24.7382 24.1661 27.0257 20.012 29.3201C19.6377 29.5267 19.3212 29.5174 18.9542 29.3056C18.1397 28.8346 17.3047 28.3946 16.4717 27.937C16.0727 28.5423 15.7191 29.1672 15.2819 29.7271C14.1083 31.2263 12.4678 32.2891 10.6216 32.7463C8.77548 33.2036 6.82969 33.029 5.09398 32.2504C4.49602 31.9798 4.32901 31.703 4.51974 31.2981C4.71046 30.8932 5.02903 30.8219 5.61565 31.076C9.39927 32.7132 13.6406 31.0378 15.2778 27.2595C17.1748 22.88 14.2901 17.8518 9.58691 17.1753C5.15378 16.537 0.731989 20.2502 1.35572 25.3579C1.44129 26.0603 1.71862 26.7451 1.95161 27.4237C2.14131 27.9763 2.09183 28.2893 1.68769 28.4741C1.28355 28.659 1.01035 28.4855 0.759825 27.935C-1.27014 23.4935 0.922717 18.1287 5.48884 16.4048C5.86308 16.2633 6.00432 16.1094 6.00432 15.6869C5.97958 13.1232 6.00432 10.5586 5.98473 7.99492C5.98473 7.50946 6.14556 7.19752 6.57753 6.96202C10.7014 4.70893 14.8166 2.44586 18.9233 0.172795C19.3295 -0.0523763 19.6563 -0.0606392 20.0666 0.166598C24.143 2.42589 28.227 4.67244 32.3185 6.90625C32.8 7.1686 33.0124 7.48363 32.9979 8.04243C32.9629 9.3666 32.998 10.6928 32.9835 12.018C32.9835 12.5706 32.6433 12.8702 32.1814 12.7535C31.7928 12.6553 31.7062 12.3506 31.7062 11.9974C31.7062 11.0334 31.7062 10.0693 31.7062 9.10528C31.7062 9.02472 31.6897 8.94312 31.6721 8.78612C31.2824 8.9927 30.9402 9.16519 30.603 9.34904C29.8958 9.73535 29.205 10.1526 28.4823 10.5059C28.0988 10.697 27.9854 10.9418 27.9957 11.3477C28.0225 12.3806 27.9895 13.4135 28.0102 14.4464C28.0215 14.9628 27.8586 15.3161 27.3679 15.5578C26.5854 15.9441 25.8348 16.3965 25.0657 16.8117C24.4039 17.1691 23.9616 16.9078 23.9523 16.1434C23.9399 15.1343 23.9523 14.1252 23.9523 13.0179C22.9286 13.5819 22.0151 14.1541 21.0388 14.5972C20.3017 14.9298 20.1027 15.377 20.1109 16.1672C20.1584 19.8154 20.1316 23.4636 20.1316 27.1159V27.7831ZM18.8573 27.7759V27.2068C18.8573 23.352 18.8501 19.4962 18.8676 15.6383C18.8676 15.2345 18.7408 15.0279 18.3954 14.8399C14.8895 12.9304 11.3883 11.0089 7.89201 9.07533C7.71984 8.9803 7.54251 8.89767 7.34869 8.79954V15.847C7.70231 15.847 8.0116 15.8542 8.31986 15.847C11.2787 15.7778 13.6582 16.945 15.4335 19.2886C16.9964 21.3482 17.4274 23.6867 16.949 26.2142C16.915 26.396 16.9614 26.7048 17.081 26.7823C17.6263 27.1345 18.2078 27.4216 18.8573 27.7759ZM23.2461 11.9334C23.078 11.8301 22.9945 11.7774 22.9069 11.7268C19.4841 9.84174 16.049 7.97839 12.6478 6.05411C11.9808 5.67607 11.4859 5.65231 10.8447 6.06444C9.9498 6.63873 8.98895 7.11076 8.05181 7.63031C8.10129 7.69538 8.10851 7.71397 8.12191 7.72223C11.843 9.77494 15.5654 11.8249 19.2893 13.8721C19.3542 13.9011 19.4244 13.9161 19.4955 13.9161C19.5665 13.9161 19.6368 13.9011 19.7017 13.8721C20.8605 13.2555 22.0162 12.6151 23.2461 11.9334ZM31.0092 7.66233C30.1381 7.18513 29.3721 6.7668 28.6081 6.34642C25.7111 4.75162 22.8134 3.15959 19.9151 1.5703C19.7388 1.47321 19.4532 1.37612 19.3089 1.45152C18.1748 2.04027 17.0634 2.67034 15.9428 3.29008C15.985 3.35928 15.9954 3.40163 16.0211 3.41506C19.7429 5.46708 23.4657 7.51359 27.1895 9.55459C27.2379 9.58139 27.2913 9.59772 27.3464 9.60252C27.4014 9.60732 27.4569 9.6005 27.5091 9.58248C28.6525 8.97204 29.7875 8.33681 31.0092 7.66233ZM13.0901 4.86008L24.5936 11.1917L25.9833 10.4233C25.9235 10.3652 25.8594 10.3117 25.7915 10.2632C22.1172 8.2373 18.4418 6.21524 14.7654 4.19696C14.7015 4.16604 14.6321 4.14836 14.5612 4.14499C14.4904 4.14162 14.4195 4.15262 14.353 4.17733C13.952 4.36635 13.5705 4.59462 13.0901 4.86008ZM25.2493 15.2428C25.7245 14.9825 26.1173 14.7821 26.4936 14.5538C26.5475 14.5207 26.5938 14.4766 26.6294 14.4242C26.6649 14.3719 26.6889 14.3125 26.6998 14.2501C26.7163 13.366 26.7091 12.4808 26.7091 11.5016C26.2184 11.7733 25.7998 11.9933 25.3967 12.2381C25.3546 12.274 25.3207 12.3184 25.297 12.3684C25.2734 12.4185 25.2606 12.473 25.2596 12.5283C25.2451 13.4011 25.2493 14.2739 25.2493 15.2428Z" fill="black"/>
<path d="M6.44122 22.6766C7.82786 22.6766 9.07326 22.6766 10.3187 22.6766C11.428 22.6766 12.2589 23.193 12.8126 24.1329C13.9466 26.0645 12.5847 28.5135 10.3465 28.5744C9.60936 28.594 8.8712 28.5847 8.13303 28.5744C7.64332 28.5744 7.35672 28.3265 7.35775 27.9412C7.35878 27.556 7.64435 27.3267 8.13715 27.3215C8.80625 27.3153 9.4774 27.3339 10.1444 27.3153C11.2084 27.2864 11.9496 26.5592 11.9311 25.5883C11.9125 24.6174 11.1548 23.9357 10.0877 23.9295C8.92378 23.9295 7.76085 23.9295 6.50308 23.9295C6.65439 24.0921 6.79687 24.2628 6.9299 24.4408C7.13094 24.7506 7.13609 25.0605 6.84433 25.3208C6.78915 25.3765 6.72323 25.4203 6.65058 25.4497C6.57794 25.4791 6.50009 25.4933 6.42178 25.4916C6.34346 25.4898 6.26632 25.4722 6.19504 25.4396C6.12377 25.407 6.05986 25.3603 6.00719 25.3022C5.47247 24.794 4.9508 24.2717 4.44219 23.7353C4.16486 23.4409 4.18239 23.1155 4.47312 22.8212C4.95424 22.333 5.43913 21.8465 5.92781 21.3617C6.22678 21.0621 6.57731 21.0002 6.87938 21.3018C7.18145 21.6034 7.12475 21.9525 6.8268 22.2572C6.73196 22.3553 6.64329 22.4576 6.44122 22.6766Z" fill="black"/>
<path d="M3.64115 30.4986C3.59578 30.8085 3.43495 31.0574 3.04113 31.0833C2.95629 31.0921 2.87054 31.0827 2.78962 31.0557C2.7087 31.0287 2.63447 30.9846 2.5719 30.9265C2.50934 30.8685 2.45988 30.7977 2.42683 30.7189C2.39378 30.6401 2.37791 30.5551 2.38028 30.4697C2.38028 30.0803 2.60194 29.8696 2.96793 29.8262C3.31536 29.7849 3.63084 30.0937 3.64115 30.4986Z" fill="black"/>
<path d="M32.2853 14.5383C32.7163 14.5218 33.0328 14.8027 33.007 15.158C32.9812 15.5133 32.8008 15.7705 32.406 15.7778C31.9936 15.7881 31.7657 15.565 31.7564 15.158C31.7495 15.0823 31.7578 15.006 31.7808 14.9336C31.8038 14.8612 31.8411 14.7941 31.8904 14.7364C31.9397 14.6786 32 14.6313 32.0679 14.5973C32.1357 14.5633 32.2096 14.5432 32.2853 14.5383Z" fill="black"/>
</g>
<defs>
<clipPath id="clip0_32_2">
<rect width="33" height="33" fill="white" transform="translate(0.0338135 0.434082)"/>
</clipPath>
</defs>
</svg>
