<svg width="14" height="12" viewBox="0 0 14 12" fill="none" xmlns="http://www.w3.org/2000/svg">
<g clip-path="url(#clip0_2212_1392)">
<path d="M10.9279 1.88501C10.8407 1.98068 10.7921 2.03857 10.7386 2.09166C10.1723 2.65805 9.60785 3.22252 9.03717 3.78268C8.94623 3.86682 8.87456 3.9694 8.82703 4.08347C8.7795 4.19753 8.75722 4.32042 8.7617 4.44378C8.76844 4.7308 8.7617 5.01782 8.7617 5.30484C8.767 5.7856 9.06028 6.08171 9.5385 6.08792C9.84335 6.09175 10.1487 6.08792 10.4535 6.08792C10.566 6.09115 10.6779 6.07065 10.7818 6.02777C10.8858 5.98489 10.9794 5.92062 11.0565 5.83917C11.3628 5.52792 11.6694 5.21698 11.9763 4.90636L12.0322 4.93363V5.16037C12.0322 6.4998 12.0322 7.83922 12.0322 9.17864C12.0322 10.011 11.5419 10.4951 10.7001 10.4956C8.66201 10.4956 6.62441 10.4989 4.58633 10.4908C4.3908 10.4908 4.28533 10.5511 4.19672 10.719C4.0142 11.0639 3.81145 11.3987 3.61352 11.7345C3.45508 12.0024 3.27641 12.0019 3.11556 11.7345C2.90029 11.3715 2.69802 11.0007 2.47456 10.6424C2.44701 10.6042 2.41176 10.5721 2.37106 10.5482C2.33035 10.5242 2.28508 10.5089 2.2381 10.5032C1.42325 10.4674 0.957559 9.99234 0.957077 9.17673C0.957077 7.1845 0.957077 5.19227 0.957077 3.20004C0.957077 2.38012 1.44926 1.88836 2.27037 1.88836C5.06358 1.88836 7.85551 1.88836 10.6462 1.88836L10.9279 1.88501ZM6.48908 8.34294H9.68828C9.76051 8.34294 9.85105 8.36685 9.90018 8.33241C9.98205 8.27596 10.089 8.18125 10.089 8.1028C10.089 8.02435 9.97916 7.93441 9.89632 7.87414C9.85442 7.84304 9.77207 7.86505 9.70802 7.86505H3.28845C3.21621 7.86505 3.1276 7.84448 3.07655 7.87797C2.99901 7.92915 2.89403 8.02147 2.89884 8.09179C2.9051 8.17694 2.99949 8.27118 3.07896 8.33098C3.12711 8.36638 3.21813 8.34389 3.29037 8.34389L6.48908 8.34294ZM5.04432 4.51602C5.66123 4.51602 6.27815 4.51602 6.89506 4.51602C7.06747 4.51602 7.2105 4.47153 7.21098 4.27683C7.21147 4.08214 7.06651 4.03765 6.89603 4.03765C5.67054 4.03957 4.44474 4.03957 3.21862 4.03765C3.03802 4.03765 2.8815 4.07736 2.89065 4.28879C2.8974 4.48444 3.04813 4.51841 3.21717 4.51793C3.82542 4.5141 4.43415 4.51554 5.04335 4.51554L5.04432 4.51602ZM5.07273 5.95111C4.46352 5.95111 3.85479 5.95111 3.24607 5.95111C3.06354 5.95111 2.8868 5.96929 2.89114 6.1989C2.89547 6.41178 3.06403 6.43187 3.23788 6.43139C4.44763 6.42948 5.65754 6.42948 6.86761 6.43139C7.04291 6.43139 7.20761 6.40747 7.2105 6.19508C7.21339 5.98268 7.05302 5.95015 6.87339 5.95111C6.27333 5.95255 5.67279 5.95063 5.07177 5.95063L5.07273 5.95111Z" fill="white"/>
<path d="M9.24716 4.84036C9.13206 4.39692 9.36755 4.11516 9.66807 3.82623C10.5446 2.98431 11.3965 2.11703 12.2629 1.26506C12.7579 0.778088 13.4668 0.837405 13.8092 1.38418C14.0582 1.78218 13.9894 2.24523 13.6128 2.61979C12.7762 3.45645 11.9161 4.27111 11.1085 5.13264C10.7622 5.49811 10.4112 5.64784 9.91319 5.61771C9.24908 5.57704 9.24716 5.60766 9.24716 4.93604V4.84036Z" fill="white"/>
</g>
<defs>
<clipPath id="clip0_2212_1392">
<rect width="13" height="11" fill="white" transform="translate(0.956116 0.934082)"/>
</clipPath>
</defs>
</svg>
