<svg width="41" height="24" viewBox="0 0 41 24" fill="none" xmlns="http://www.w3.org/2000/svg">
<g clip-path="url(#clip0_1_5)">
<path d="M27.1478 1.95337H26.3167C20.4567 1.95337 14.5963 1.95337 8.73547 1.95337C8.46762 1.95337 8.14721 1.97965 7.94821 1.84698C7.69789 1.68427 7.42003 1.37012 7.41627 1.1173C7.41252 0.864476 7.69038 0.549072 7.92693 0.366338C8.0984 0.241178 8.40379 0.256196 8.65036 0.256196C15.0327 0.25119 21.4159 0.25119 27.7999 0.256196C28.8875 0.256196 29.1892 0.615406 28.9614 1.67802C28.7111 2.85202 28.4294 4.01851 28.1441 5.26136C29.5033 5.26136 30.7925 5.27638 32.0816 5.26136C33.7438 5.23633 35.3683 5.36274 36.8515 6.21884C39.212 7.57933 40.56 9.62695 40.7014 12.3317C40.7577 13.4268 40.4148 14.5458 40.2233 15.6484C40.0055 16.9 39.7314 18.1354 39.5237 19.3857C39.4123 20.0528 39.0581 20.3257 38.4097 20.2756C38.3472 20.2756 38.2846 20.2831 38.222 20.2756C37.6112 20.1842 37.2983 20.3745 37.0718 21.0266C36.5186 22.6274 34.8777 23.6549 33.1743 23.6324C31.4984 23.6086 29.9439 22.5535 29.3807 20.9627C29.1892 20.4208 28.9501 20.2506 28.3794 20.2581C25.4394 20.2919 22.4968 20.2756 19.5581 20.2706C19.2339 20.2706 18.9986 20.2706 18.8522 20.6761C18.1801 22.5535 16.6994 23.6349 14.8858 23.6336C13.0723 23.6324 11.5466 22.4922 10.8732 20.6198C10.8382 20.5234 10.8144 20.4245 10.7693 20.2731C9.97831 20.2731 9.18855 20.2793 8.39878 20.2731C7.75045 20.2668 7.36121 19.9389 7.38248 19.4358C7.40251 18.9614 7.79301 18.641 8.39127 18.6335C9.18104 18.6235 9.97205 18.6335 10.7505 18.6335C11.6517 15.8987 13.4365 15.2855 14.8808 15.3105C17.0336 15.348 18.3778 16.5621 19.0111 18.6322C20.3654 18.6322 21.7171 18.6473 23.0688 18.611C23.2165 18.611 23.4443 18.3306 23.4869 18.1466C24.0776 15.6634 24.6446 13.1752 25.2116 10.6871C25.8199 8.01697 26.4252 5.34688 27.0277 2.6768C27.0639 2.45401 27.0927 2.2525 27.1478 1.95337ZM25.1152 18.6172C26.3368 18.6172 27.502 18.6047 28.6673 18.6247C29.0114 18.6247 29.1541 18.5346 29.2755 18.1867C29.8926 16.4069 31.4433 15.2842 33.2231 15.2704C35.0029 15.2567 36.5799 16.3969 37.1844 18.1629C37.3396 18.621 37.5461 18.7011 37.9817 18.5484C38.192 17.4144 38.406 16.273 38.615 15.1315C38.7815 14.2141 39.0931 13.2916 39.0756 12.378C39.023 9.73584 36.7351 7.22262 34.108 7.02737C32.0165 6.87217 29.9063 6.99608 27.7561 6.99608C26.8812 10.8498 26.0038 14.706 25.1152 18.6172ZM17.3553 19.4733C17.3553 18.029 16.3277 16.9701 14.9021 16.9701C14.574 16.9624 14.2477 17.0206 13.9425 17.1412C13.6373 17.2618 13.3594 17.4424 13.1252 17.6722C12.891 17.9021 12.7053 18.1766 12.579 18.4795C12.4528 18.7824 12.3886 19.1076 12.3901 19.4358C12.3884 20.099 12.647 20.7365 13.1105 21.211C13.574 21.6854 14.2052 21.959 14.8683 21.9728C15.1959 21.9743 15.5206 21.9106 15.8234 21.7855C16.1262 21.6603 16.401 21.4762 16.632 21.2439C16.863 21.0115 17.0454 20.7355 17.1687 20.432C17.292 20.1285 17.3537 19.8034 17.3503 19.4758L17.3553 19.4733ZM35.7426 19.4733C35.7475 18.8094 35.4886 18.1707 35.0227 17.6978C34.5567 17.2248 33.922 16.9563 33.2581 16.9513C32.5942 16.9464 31.9556 17.2053 31.4826 17.6712C31.0096 18.1372 30.7411 18.7719 30.7362 19.4358C30.7398 20.0982 31.0009 20.7333 31.4643 21.2068C31.9277 21.6802 32.5571 21.9549 33.2193 21.9728C34.5611 21.9915 35.7275 20.8313 35.7376 19.4758L35.7426 19.4733Z" fill="black"/>
<path d="M6.51763 15.2554C4.93435 15.2554 3.35233 15.2554 1.76905 15.2554C1.07691 15.2554 0.722707 14.9863 0.703933 14.4744C0.685159 13.9624 1.09068 13.6145 1.7728 13.6145C4.95938 13.6145 8.14597 13.6145 11.3326 13.6145C12.0134 13.6145 12.3451 13.8999 12.3463 14.4443C12.3476 14.9888 12.0284 15.2528 11.3288 15.2541C9.72549 15.2591 8.12219 15.2554 6.51763 15.2554Z" fill="black"/>
<path d="M7.33118 10.249C6.01699 10.249 4.70281 10.249 3.38863 10.249C2.73904 10.249 2.3498 9.91604 2.36857 9.41414C2.38734 8.93979 2.7791 8.61061 3.36985 8.60936C6.03994 8.60352 8.71003 8.60352 11.3801 8.60936C12.0059 8.60936 12.3363 8.90599 12.3426 9.42916C12.3489 9.95233 12.0372 10.2415 11.3939 10.2465C10.0422 10.2552 8.68667 10.249 7.33118 10.249Z" fill="black"/>
<path d="M8.14346 5.24373C7.10213 5.24373 6.06079 5.24999 5.01445 5.24373C4.37113 5.23747 4.05823 4.95836 4.06198 4.43144C4.06574 3.90451 4.39116 3.60788 5.01696 3.60538C7.14051 3.59704 9.2649 3.59704 11.3901 3.60538C12.0159 3.60538 12.3401 3.90952 12.3426 4.43269C12.3451 4.95586 12.0334 5.23747 11.3876 5.24373C10.31 5.24999 9.2261 5.24373 8.14346 5.24373Z" fill="black"/>
<path d="M25.1152 18.6171C26.0038 14.7058 26.8812 10.8496 27.7561 6.99466C29.9063 6.99466 32.0115 6.8695 34.1079 7.02595C36.7363 7.2212 39.023 9.73442 39.0756 12.3766C39.0931 13.2915 38.7814 14.2139 38.615 15.1301C38.406 16.2715 38.1919 17.413 37.9817 18.547C37.5461 18.6997 37.3396 18.6196 37.1844 18.1615C36.5799 16.3905 34.9853 15.2552 33.2231 15.269C31.4608 15.2828 29.8925 16.4055 29.2755 18.1853C29.1503 18.5332 29.0114 18.6283 28.6672 18.6233C27.502 18.5995 26.3367 18.6171 25.1152 18.6171Z" fill="white"/>
</g>
<defs>
<clipPath id="clip0_1_5">
<rect width="40" height="23.3762" fill="white" transform="translate(0.703918 0.246094)"/>
</clipPath>
</defs>
</svg>
