<svg width="31" height="34" viewBox="0 0 31 34" fill="none" xmlns="http://www.w3.org/2000/svg">
<g clip-path="url(#clip0_2057_715)">
<path d="M20.3741 28.6173C22.5055 28.6173 24.1875 27.7079 25.6063 25.9336C25.2879 25.9336 25.0822 25.9336 24.8754 25.9336C24.1772 25.9284 23.8988 25.6456 23.8977 24.9262C23.8977 23.4812 23.8977 22.0361 23.8977 20.5911C23.8977 18.889 23.9151 17.1849 23.8916 15.4828C23.8762 14.4094 24.2571 13.9046 25.245 14.076C25.3283 14.0787 25.4116 14.07 25.4927 14.0502C25.8592 9.81001 24.7382 6.19223 21.105 3.77178C17.6705 1.48036 14.0209 1.39262 10.4993 3.51064C6.58773 5.8671 5.32344 9.58706 5.71245 14.0512C5.88341 14.0595 6.06358 14.0729 6.24478 14.075C6.95422 14.0832 7.27771 14.3846 7.29 15.1009C7.30535 16.0815 7.29 17.0621 7.29 18.0426C7.29 20.3313 7.29 22.6189 7.29 24.9056C7.29 25.6621 7.02588 25.9274 6.28163 25.9295C5.37769 25.9295 4.47273 25.9367 3.56879 25.9295C1.88477 25.914 0.497639 24.6609 0.440311 22.9589C0.375817 20.9668 0.388102 18.9685 0.460786 16.9723C0.518114 15.424 1.90115 14.173 3.48484 14.077C3.65069 14.0667 3.81755 14.0584 4.03663 14.0471C4.03663 13.4071 4.02639 12.792 4.03663 12.1768C4.11238 7.88913 5.90286 4.52837 9.4787 2.20391C15.9404 -1.99704 24.8805 1.58461 26.759 9.07819C27.1102 10.4768 27.1685 11.8909 27.1552 13.3194C27.1552 13.5568 27.1552 13.7952 27.1552 14.0233C29.1166 14.4362 30.254 15.6748 30.34 17.6514C30.4209 19.4877 30.4086 21.3322 30.3533 23.1694C30.3113 24.5928 29.5005 25.5176 28.1083 25.7499C27.6067 25.8345 27.3794 26.0843 27.1439 26.4518C26.0772 28.1136 24.6225 29.2851 22.7307 29.8414C21.9691 30.0654 21.1706 30.1614 20.327 30.3286C20.2283 30.8394 20.0239 31.3234 19.727 31.749C19.4301 32.1746 19.0475 32.5323 18.6041 32.7986C17.7028 33.3756 16.6141 33.5759 15.5688 33.357C13.7824 33.0071 12.3953 31.2627 12.4116 29.3315C12.428 27.4003 13.8377 25.7788 15.7807 25.4433C17.8087 25.0965 19.5336 26.2753 20.3741 28.6173ZM5.64284 15.7037C5.02861 15.7037 4.43485 15.7037 3.84212 15.7037C2.73037 15.7037 2.01786 16.3798 1.99943 17.5183C1.97589 19.2369 1.9851 20.9565 1.99943 22.6792C2.00455 23.4068 2.47444 24.1387 3.12552 24.215C3.95575 24.3131 4.80544 24.2388 5.64079 24.2388L5.64284 15.7037ZM25.5572 24.2708C26.196 24.2708 26.7754 24.2801 27.3548 24.2708C28.3212 24.2532 28.7932 23.7702 28.7952 22.803C28.7952 21.2372 28.8085 19.6724 28.786 18.1066C28.7812 17.7129 28.712 17.3227 28.5812 16.9516C28.3765 16.3912 28.0592 15.842 27.4296 15.746C26.8215 15.6531 26.1868 15.7254 25.5603 15.7254L25.5572 24.2708ZM18.7863 29.4719C18.7863 28.0568 17.7626 26.9947 16.4154 26.9864C15.7873 26.9847 15.184 27.2332 14.7367 27.6779C14.2894 28.1225 14.0344 28.7272 14.0271 29.3604C14.029 30.0098 14.2856 30.6321 14.7409 31.0914C15.1962 31.5507 15.8133 31.8097 16.4574 31.8118C16.7628 31.8146 17.0658 31.7561 17.3487 31.6399C17.6317 31.5238 17.8889 31.3521 18.1055 31.1349C18.3221 30.9177 18.4939 30.6594 18.6107 30.3748C18.7276 30.0902 18.7873 29.7851 18.7863 29.4771V29.4719Z" fill="#3D3D3D"/>
</g>
<defs>
<clipPath id="clip0_2057_715">
<rect width="30" height="33.0275" fill="white" transform="translate(0.402435 0.42041)"/>
</clipPath>
</defs>
</svg>
