<svg width="17" height="17" viewBox="0 0 17 17" fill="none" xmlns="http://www.w3.org/2000/svg">
<g clip-path="url(#clip0_2083_1254)">
<path d="M6.18643 16.0352V5.37709H9.31958V6.80911C9.58136 6.50931 9.77253 6.24581 10.0068 6.02738C10.8815 5.23377 11.9436 4.99405 13.0806 5.13112C13.6255 5.19371 14.1577 5.33935 14.6587 5.56298C15.5659 5.97794 16.0332 6.78783 16.235 7.72852C16.3798 8.3781 16.461 9.0403 16.4774 9.70568C16.5093 11.7392 16.4912 13.7739 16.4918 15.8074C16.4918 15.87 16.4837 15.9326 16.478 16.0164H13.1856V15.6703C13.1856 13.9385 13.1962 12.2073 13.1756 10.4755C13.1685 10.008 13.1082 9.54292 12.9956 9.08919C12.8482 8.4946 12.4415 8.13848 11.8192 8.03208C10.6141 7.82679 9.74629 8.43639 9.57011 9.6481C9.52107 9.98764 9.49601 10.3302 9.49514 10.6733C9.48702 12.3419 9.49139 14.0111 9.49077 15.6803V16.0358L6.18643 16.0352Z" fill="#3D3D3D"/>
<path d="M4.05726 5.38574V16.0301H0.771667V5.38574H4.05726Z" fill="#3D3D3D"/>
<path d="M4.32652 1.95745C4.32652 3.02145 3.46186 3.90394 2.42101 3.9077C1.38017 3.91145 0.493643 3.00518 0.501764 1.9343C0.508147 1.42956 0.712149 0.94753 1.06984 0.592009C1.42752 0.236487 1.91028 0.035919 2.41414 0.033498C2.66648 0.0316511 2.91665 0.0802148 3.15004 0.17635C3.38342 0.272486 3.59534 0.414264 3.77339 0.593398C3.95145 0.772531 4.09207 0.985425 4.18704 1.21964C4.28202 1.45385 4.32943 1.70467 4.32652 1.95745Z" fill="#3D3D3D"/>
</g>
<defs>
<clipPath id="clip0_2083_1254">
<rect width="16" height="16" fill="white" transform="translate(0.50177 0.0351562)"/>
</clipPath>
</defs>
</svg>
