<svg width="17" height="17" viewBox="0 0 17 17" fill="none" xmlns="http://www.w3.org/2000/svg">
<g clip-path="url(#clip0_2083_1250)">
<path d="M6.26615 0.0356445H11.0588C11.4329 0.0563674 11.8071 0.0765451 12.1811 0.0979497C12.8359 0.136533 13.477 0.249145 14.0779 0.518952C15.552 1.18086 16.3288 2.35947 16.5704 3.92324C16.6132 4.19945 16.6346 4.47894 16.666 4.75692V11.1979C16.6566 11.2695 16.6465 11.3408 16.6377 11.4125C16.5953 11.7635 16.5782 12.1198 16.5065 12.4648C16.188 13.9943 15.3227 15.0801 13.8499 15.6524C13.1446 15.9266 12.4011 16.0014 11.6528 16.0091C9.95654 16.0262 8.26002 16.0422 6.56377 16.0331C5.7306 16.0286 4.89292 16.0253 4.07327 15.8266C2.74607 15.5052 1.76034 14.7538 1.17398 13.5133C0.813256 12.7498 0.703168 11.9287 0.69429 11.0953C0.675988 9.36573 0.65673 7.63577 0.670661 5.90623C0.676398 5.17915 0.720379 4.44608 0.826779 3.7276C0.99273 2.60774 1.5332 1.67807 2.45105 0.990671C3.23764 0.401568 4.14826 0.167344 5.11146 0.0993131C5.49594 0.0721825 5.88125 0.0565038 6.26615 0.0356445ZM8.68371 14.6295C8.68371 14.6213 8.68371 14.6131 8.68371 14.6049C9.10712 14.6049 9.53053 14.6175 9.95217 14.6024C10.8588 14.5698 11.7723 14.5803 12.6702 14.4682C13.9036 14.3141 14.74 13.6077 15.0431 12.3823C15.166 11.8872 15.2078 11.363 15.2167 10.851C15.244 9.24139 15.252 7.63146 15.2406 6.02116C15.2367 5.37139 15.2056 4.71739 15.1234 4.07348C14.9595 2.7892 14.1552 1.91829 12.8851 1.66539C12.3367 1.55632 11.7668 1.52333 11.2051 1.51406C9.80125 1.49075 8.39688 1.49497 6.99264 1.49961C6.18952 1.5022 5.38422 1.49197 4.58874 1.63172C3.37314 1.84508 2.53997 2.61537 2.29152 3.82453C2.18444 4.34587 2.1492 4.88794 2.13772 5.42183C2.11041 6.70338 2.10016 7.98493 2.1145 9.26648C2.12461 10.1719 2.14851 11.0797 2.23538 11.9806C2.3202 12.8605 2.73583 13.5864 3.5089 14.0653C4.03148 14.389 4.61893 14.5185 5.22414 14.54C6.37692 14.582 7.53038 14.6013 8.68343 14.6295H8.68371Z" fill="#3D3D3D"/>
<path d="M4.55549 8.03776C4.5589 5.76697 6.41386 3.92154 8.68377 3.93094C10.9657 3.94035 12.8086 5.78824 12.795 8.0529C12.7802 10.327 10.9426 12.1564 8.67654 12.1539C6.40157 12.1521 4.55166 10.3043 4.55549 8.03776ZM6.00698 8.03776C6.00556 8.38763 6.07337 8.73433 6.20654 9.05797C6.3397 9.38161 6.53558 9.6758 6.78295 9.92368C7.03032 10.1716 7.32429 10.3682 7.648 10.5024C7.97171 10.6366 8.31878 10.7056 8.6693 10.7056C9.01977 10.7075 9.36718 10.6403 9.69158 10.5079C10.016 10.3755 10.311 10.1804 10.5596 9.93384C10.8083 9.6873 11.0057 9.39417 11.1406 9.07127C11.2755 8.74836 11.3451 8.40205 11.3455 8.05221C11.3479 7.70107 11.2806 7.35293 11.1473 7.02794C11.0141 6.70294 10.8177 6.40752 10.5694 6.15876C10.3211 5.91 10.0258 5.71284 9.70073 5.57866C9.37563 5.44448 9.0271 5.37596 8.67531 5.37705C8.32485 5.37622 7.97768 5.44448 7.65371 5.5779C7.32974 5.71132 7.03535 5.90728 6.78744 6.15454C6.53953 6.4018 6.34297 6.69548 6.20903 7.01875C6.0751 7.34201 6.00644 7.68849 6.00698 8.03831V8.03776Z" fill="#3D3D3D"/>
<path d="M12.9789 2.81046C13.5169 2.82 13.9301 3.25314 13.9171 3.79384C13.9043 4.32146 13.4724 4.73319 12.9397 4.72542C12.4099 4.71765 11.988 4.27551 11.9989 3.73917C12.0092 3.21537 12.4462 2.80118 12.9789 2.81046Z" fill="#3D3D3D"/>
</g>
<defs>
<clipPath id="clip0_2083_1250">
<rect width="16" height="16" fill="white" transform="translate(0.665649 0.0356445)"/>
</clipPath>
</defs>
</svg>
