<svg width="19" height="13" viewBox="0 0 19 13" fill="none" xmlns="http://www.w3.org/2000/svg">
<g clip-path="url(#clip0_2083_1263)">
<path d="M9.29245 12.0356C11.1404 11.9671 12.9886 11.9047 14.836 11.8256C15.2725 11.8038 15.7071 11.7547 16.1369 11.6786C17.1801 11.501 17.8484 10.8294 18.0457 9.78496C18.3164 8.3529 18.3711 6.90503 18.3198 5.4569C18.2843 4.44433 18.1816 3.4331 18.0782 2.42402C18.0023 1.68495 17.6868 1.05598 17.0008 0.635684C16.5818 0.379059 16.1096 0.30459 15.6299 0.256372C13.769 0.0688601 11.9003 0.0276079 10.032 0.0367155C8.15166 0.0455551 6.2713 0.0993977 4.39292 0.157259C3.78925 0.175742 3.18503 0.249676 2.58615 0.332717C1.55899 0.475494 0.858052 1.14545 0.645458 2.15159C0.432865 3.15773 0.383803 4.17672 0.352787 5.19679C0.311622 6.53912 0.355609 7.87956 0.53465 9.21304C0.57255 9.51327 0.630277 9.81093 0.707489 10.1043C0.950252 10.9998 1.72027 11.6044 2.74067 11.7246C4.49894 11.9341 6.26764 11.9518 8.03578 11.9802C8.4542 11.9869 8.8729 11.9802 9.2916 11.9802L9.29245 12.0356ZM7.55448 8.56639V3.45185L12.2287 6.00899L7.55448 8.56639Z" fill="#3D3D3D"/>
</g>
<defs>
<clipPath id="clip0_2083_1263">
<rect width="18" height="12" fill="white" transform="matrix(1 0 0 -1 0.337769 12.0356)"/>
</clipPath>
</defs>
</svg>
