<svg width="17" height="16" viewBox="0 0 17 16" fill="none" xmlns="http://www.w3.org/2000/svg">
<path d="M16.1738 15.4127H15.4624C14.1926 15.4127 12.9233 15.409 11.6536 15.4173C11.4684 15.4173 11.3667 15.3629 11.2649 15.2287C9.9114 13.4424 8.55382 11.6589 7.19215 9.87817C7.14919 9.82236 7.10316 9.76839 7.03873 9.68952C6.68535 10.0585 6.34374 10.416 6.00213 10.7739C4.58011 12.2644 3.15895 13.7557 1.73863 15.248C1.62408 15.3689 1.508 15.4261 1.32952 15.4196C0.965406 15.4062 0.60027 15.4155 0.173767 15.4155C0.480604 15.0926 0.751643 14.8025 1.02524 14.5156C2.76398 12.6936 4.50426 10.8728 6.24607 9.053C6.39181 8.90124 6.38159 8.80346 6.26039 8.64479C4.26697 6.0415 2.2802 3.43606 0.300082 0.82846C0.267352 0.785103 0.236158 0.740823 0.186041 0.671635C0.280649 0.665178 0.351221 0.655953 0.421282 0.655953C1.85319 0.655953 3.28509 0.655953 4.717 0.650879C4.88524 0.650879 4.97269 0.703923 5.06372 0.823386C6.31596 2.4765 7.57211 4.12778 8.83219 5.7772C8.90378 5.87176 8.97947 5.9617 9.06999 6.07655C9.51592 5.61023 9.94856 5.15775 10.3807 4.7048C11.636 3.38932 12.8925 2.0746 14.1502 0.760656C14.2111 0.702047 14.2941 0.66603 14.3829 0.659643C14.7828 0.649495 15.1827 0.65503 15.6511 0.65503L9.69235 6.90496C11.8443 9.73057 13.9916 12.5493 16.1738 15.4127ZM2.10377 1.62135C2.16105 1.70253 2.19429 1.75326 2.23162 1.80123C3.64886 3.63055 5.06645 5.46017 6.48438 7.2901C8.30665 9.64124 10.1306 11.9919 11.9563 14.3421C12.0074 14.4049 12.0867 14.4902 12.1547 14.4911C12.8318 14.5022 13.5094 14.498 14.2274 14.498C14.1701 14.4159 14.1384 14.3652 14.1011 14.3172C12.6303 12.4184 11.1592 10.5195 9.68775 8.62034C7.91764 6.33654 6.14703 4.05428 4.3759 1.77356C4.32476 1.71083 4.24549 1.62688 4.17747 1.6255C3.49937 1.61443 2.82126 1.62135 2.10377 1.62135Z" fill="#3D3D3D"/>
</svg>
