<svg width="10" height="17" viewBox="0 0 10 17" fill="none" xmlns="http://www.w3.org/2000/svg">
<g clip-path="url(#clip0_2083_1248)">
<path d="M2.88769 9.06653H1.75456C1.44212 9.06653 1.12942 9.07146 0.81697 9.06431C0.490394 9.05692 0.383505 8.96302 0.380165 8.65224C0.372627 7.83778 0.372627 7.02324 0.380165 6.20862C0.383248 5.90005 0.497845 5.80245 0.820311 5.80073C1.4249 5.79728 2.02975 5.80073 2.63434 5.7995H2.88563C2.88563 5.71127 2.88435 5.63585 2.88563 5.56019C2.89976 4.8181 2.87073 4.07232 2.93702 3.33419C3.10532 1.45421 4.60176 0.111758 6.56868 0.0501434C7.36957 0.0254977 8.17175 0.0392993 8.97342 0.041271C9.25606 0.041271 9.36989 0.15267 9.37117 0.423772C9.37528 1.18631 9.37528 1.94877 9.37117 2.71114C9.37117 3.00344 9.26351 3.10917 8.9503 3.11632C8.40018 3.12864 7.8498 3.12889 7.29943 3.13702C6.68276 3.14589 6.42299 3.37756 6.41014 3.96167C6.39704 4.55316 6.40706 5.14466 6.40706 5.75858H6.64525C7.34482 5.75858 8.04457 5.75858 8.74448 5.75858C9.18566 5.75858 9.28921 5.85717 9.28972 6.27343C9.28972 7.04879 9.28972 7.82422 9.28972 8.59974C9.28972 8.947 9.19337 9.04016 8.82927 9.04164C8.0348 9.0446 7.24033 9.04164 6.40757 9.04164V15.4143C6.40757 15.9767 6.34513 16.0351 5.74979 16.0351C4.96834 16.0351 4.18706 16.0351 3.40594 16.0351C2.98764 16.0351 2.88589 15.9365 2.88589 15.5407C2.88589 13.4683 2.88589 11.396 2.88589 9.32383L2.88769 9.06653Z" fill="#3D3D3D"/>
</g>
<defs>
<clipPath id="clip0_2083_1248">
<rect width="9" height="16" fill="white" transform="translate(0.376221 0.0356445)"/>
</clipPath>
</defs>
</svg>
